<svg width="155" height="42" viewBox="0 0 155 42" fill="none" xmlns="http://www.w3.org/2000/svg">
<g opacity="0.5" clipPath="url(#clip0_326_209)">
<path fill-rule="evenodd" clip-rule="evenodd" d="M42.6318 36.0248L46.4462 0.405762H52.8175L51.2038 15.2292C52.1679 13.8968 53.2192 12.8538 54.3579 12.1004C55.4966 11.3469 56.7018 10.9702 57.9731 10.9702C58.8676 10.9702 59.6848 11.1486 60.4255 11.5055C61.1658 11.8624 61.805 12.4216 62.3431 13.183C62.8809 13.9444 63.3001 14.916 63.6004 16.0977C63.901 17.2795 64.0511 18.6873 64.0511 20.3211C64.0511 22.4784 63.7613 24.5286 63.1812 26.4718C62.6014 28.4149 61.8225 30.124 60.8444 31.5994C59.8666 33.0744 58.7383 34.2445 57.4599 35.1089C56.1814 35.9734 54.8436 36.4058 53.4463 36.4058C52.3704 36.4058 51.4239 36.1715 50.6066 35.7036C49.7891 35.2357 49.0941 34.6211 48.5211 33.8597L48.4583 34.0977C48.1202 35.2487 47.1734 36.0248 46.1068 36.0248H42.6318ZM55.3743 16.5617C54.9134 16.5617 54.4348 16.76 53.9387 17.1565C53.4429 17.5531 52.9643 18.0964 52.5031 18.7864C52.0422 19.4764 51.6126 20.2854 51.2143 21.2134C50.8159 22.1413 50.4843 23.1287 50.2187 24.1757L49.5899 29.9337C49.9953 30.3144 50.4494 30.5841 50.9523 30.7427C51.4554 30.9013 51.9374 30.9807 52.3983 30.9807C53.153 30.9807 53.848 30.695 54.4838 30.124C55.1194 29.553 55.6679 28.8035 56.129 27.8756C56.5899 26.9476 56.9497 25.8888 57.2083 24.6991C57.4666 23.5094 57.5959 22.296 57.5959 21.0587C57.5959 19.4883 57.3934 18.3462 56.9883 17.6324C56.5829 16.9186 56.0451 16.5617 55.3743 16.5617ZM83.5841 36.0248H81.1439C79.3964 36.0248 77.9797 34.4128 77.9797 32.4242C77.9797 32.2596 77.9895 32.0953 78.0092 31.9324C77.1151 33.3283 76.1229 34.423 75.0332 35.2161C73.9433 36.0092 72.7417 36.4058 71.4284 36.4058C70.6458 36.4058 69.8914 36.2273 69.1648 35.8703C68.4383 35.5133 67.7957 34.974 67.2368 34.2523C66.6778 33.5305 66.2308 32.6105 65.8955 31.4922C65.56 30.3738 65.3924 29.0534 65.3924 27.5306C65.3924 25.294 65.7521 23.1724 66.4716 21.1658C67.1914 19.1591 68.1974 17.4024 69.4896 15.8955C70.7821 14.3885 72.3155 13.1909 74.09 12.3026C75.8645 11.4143 77.8134 10.9702 79.9373 10.9702C80.9712 10.9702 82.0192 11.0495 83.0809 11.2081C84.143 11.3667 85.1907 11.6523 86.2249 12.0647L83.5841 36.0248ZM74.0272 30.5763C74.5022 30.5763 74.9633 30.3738 75.4104 29.9695C75.8575 29.5648 76.2801 29.0137 76.6784 28.3158C77.0765 27.6178 77.4433 26.8009 77.7785 25.865C78.114 24.9291 78.4005 23.9298 78.638 22.867L79.3925 16.0382H79.0152C77.9532 16.0382 76.9858 16.3079 76.1124 16.8472C75.2391 17.3865 74.4884 18.1202 73.8596 19.0481C73.2308 19.9761 72.7451 21.0547 72.4028 22.2841C72.0606 23.5134 71.8895 24.826 71.8895 26.2219C71.8895 27.0151 71.9453 27.6892 72.0572 28.2444C72.1687 28.7996 72.3192 29.2477 72.5076 29.5888C72.6964 29.9299 72.9198 30.1798 73.1784 30.3383C73.4367 30.4969 73.7199 30.5763 74.0272 30.5763ZM87.6918 36.0248L90.3325 11.3509H91.7518C94.0106 11.3509 95.8417 13.4346 95.8417 16.005C95.8417 16.1512 95.8355 16.2972 95.8234 16.4427C96.6618 14.7613 97.5701 13.4685 98.5482 12.5643C99.5263 11.6602 100.539 11.2081 101.587 11.2081C102.174 11.2081 102.754 11.3588 103.327 11.6602L102.153 18.489C101.44 18.14 100.763 17.9655 100.12 17.9655C99.044 17.9655 98.0907 18.5167 97.2593 19.6192C96.428 20.7216 95.7538 22.4942 95.2366 24.9371L94.063 36.0248H87.6918ZM105.506 30.695V30.2907C105.506 30.1321 105.517 29.9059 105.538 29.6125C105.559 29.319 105.594 28.9305 105.642 28.4466C105.691 27.9628 105.758 27.3244 105.841 26.5313L106.952 16.4427H105.213C104.947 16.4427 104.724 16.3436 104.542 16.1453C104.361 15.947 104.27 15.6496 104.27 15.253C104.27 15.2372 104.284 15.0984 104.311 14.8366C104.34 14.5749 104.368 14.2973 104.395 14.0039C104.423 13.7104 104.451 13.4368 104.479 13.183C104.507 12.9292 104.521 12.7864 104.521 12.7547L104.675 11.3984L107.875 11.3509L108.446 7.00872C108.66 5.38804 109.883 4.18897 111.323 4.18897H114.644L113.848 11.3984H118.71L118.667 11.7924C118.38 14.4477 116.398 16.4427 114.048 16.4427H113.303L112.255 26.1268C112.185 26.7771 112.132 27.2887 112.098 27.6615C112.063 28.0342 112.035 28.3198 112.014 28.518C111.999 28.6528 111.985 28.7876 111.972 28.9225C111.965 28.9939 111.961 29.0375 111.961 29.0534C111.961 29.5134 112.056 29.8981 112.244 30.2075C112.433 30.5168 112.73 30.6713 113.135 30.6713C113.358 30.6713 113.544 30.6436 113.69 30.5882C113.788 30.5512 114.134 30.3964 114.728 30.124L116.866 34.2641C115.999 34.9781 115.07 35.5133 114.078 35.8703C113.086 36.2273 112.087 36.4058 111.081 36.4058C110.243 36.4058 109.488 36.2746 108.818 36.013C108.147 35.7513 107.571 35.3706 107.089 34.8709C106.607 34.3713 106.229 33.7725 105.957 33.0744C105.684 32.3766 105.534 31.5835 105.506 30.695ZM137.907 17.4183C137.907 18.5445 137.712 19.5756 137.321 20.5114C136.929 21.4473 136.248 22.2761 135.277 22.9979C134.306 23.7196 133 24.3343 131.358 24.8419C129.716 25.3495 127.652 25.746 125.165 26.0316C125.193 27.713 125.518 28.9423 126.14 29.7197C126.761 30.4969 127.68 30.8854 128.896 30.8854C129.468 30.8854 129.964 30.8299 130.384 30.719C130.803 30.6078 131.169 30.4651 131.484 30.2907C133.368 29.2451 135.62 29.6001 137.184 31.1895L137.446 31.4567C136.678 32.3131 135.927 33.0548 135.193 33.6812C134.46 34.3077 133.705 34.8233 132.93 35.2279C132.154 35.6323 131.33 35.9298 130.457 36.1201C129.584 36.3105 128.63 36.4058 127.596 36.4058C126.311 36.4058 125.13 36.1559 124.054 35.6563C122.978 35.1566 122.053 34.4507 121.277 33.5386C120.502 32.6264 119.901 31.528 119.475 30.243C119.049 28.9582 118.836 27.5306 118.836 25.9602C118.836 24.6436 118.965 23.3588 119.223 22.1056C119.482 20.8525 119.852 19.6747 120.334 18.5722C120.816 17.4698 121.406 16.4546 122.105 15.5267C122.803 14.5987 123.589 13.8016 124.463 13.1354C125.336 12.4692 126.293 11.9497 127.334 11.5769C128.375 11.2041 129.482 11.0178 130.656 11.0178C131.816 11.0178 132.846 11.2081 133.747 11.5888C134.648 11.9695 135.407 12.4652 136.021 13.0759C136.636 13.6866 137.104 14.3727 137.425 15.1341C137.747 15.8955 137.907 16.6569 137.907 17.4183ZM130.279 15.9906C129.203 15.9906 128.26 16.4784 127.449 17.454C126.639 18.4295 126.031 19.7659 125.626 21.4632C126.981 21.2253 128.078 20.9754 128.916 20.7137C129.755 20.4519 130.404 20.1664 130.866 19.8571C131.326 19.5478 131.637 19.2147 131.798 18.8578C131.959 18.5009 132.039 18.1162 132.039 17.7038C132.039 17.2913 131.899 16.9027 131.62 16.5379C131.341 16.1731 130.893 15.9906 130.279 15.9906ZM138.997 36.0248L141.638 11.3509H142.654C145.126 11.3509 147.129 13.6306 147.129 16.4427C147.967 14.7613 148.876 13.4685 149.853 12.5643C150.832 11.6602 151.845 11.2081 152.893 11.2081C153.479 11.2081 154.059 11.3588 154.632 11.6602L153.458 18.489C152.746 18.14 152.068 17.9655 151.425 17.9655C150.35 17.9655 149.396 18.5167 148.565 19.6192C147.733 20.7216 147.059 22.4942 146.542 24.9371L145.369 36.0248H138.997Z" fill="#8A846F" style="fill:#8A846F;fill:color(display-p3 0.5419 0.5182 0.4355);fill-opacity:1;"/>
<path d="M26.6676 17.8504C31.6084 13.5091 41.7721 -2.00694 25.8912 0.726452C18.9741 1.85195 10.3994 8.4297 8.3525 16.6299C7.28461 14.4371 6.10626 12.3165 4.82337 10.2788C2.91765 7.46497 -0.859518 10.2129 1.25794 13.1071C7.25747 21.3877 11.4218 31.3564 11.4218 41.4058C11.9159 36.4213 12.7286 29.7341 10.8935 23.7849C11.565 24.3114 11.6136 24.3509 12.0811 24.993C15.3279 30.6207 20.3152 35.2957 25.8912 37.5469C30.9733 39.7176 37.749 38.4312 34.9964 29.7487C33.5141 25.0054 30.0555 20.8249 26.6676 17.8504Z" fill="#8A846F" style="fill:#8A846F;fill:color(display-p3 0.5419 0.5182 0.4355);fill-opacity:1;"/>
</g>
<defs>
<clipPath id="clip0_326_209">
<rect width="155" height="42" fill="white" style="fill:white;fill-opacity:1;"/>
</clipPath>
</defs>
</svg>
