<svg width="201" height="34" viewBox="0 0 201 34" fill="none" xmlns="http://www.w3.org/2000/svg">
<g clip-path="url(#clip0_552_1025)">
<mask id="mask0_552_1025" style="mask-type:luminance" maskUnits="userSpaceOnUse" x="0" y="0" width="201" height="34">
<path d="M0.886719 33.9343H200.119V0.0634117H0.886719V33.9343Z" fill="white" style="fill:white;fill-opacity:1;"/>
</mask>
<g mask="url(#mask0_552_1025)">
<path d="M9.63076 20.9322C9.63076 22.8404 8.98886 23.7534 6.75532 23.7534H5.36388V18.4086H6.84687C8.87618 18.4086 9.63076 19.1232 9.63076 20.9322ZM12.6229 21.1306C12.6229 18.9087 10.8059 18.1099 8.59948 18.0598V17.9766C10.4748 17.8283 12.0162 17.0416 12.0162 15.1514C12.0162 13.0528 10.2726 12.6599 8.32382 12.6599C5.9786 12.6599 3.2259 12.724 0.886719 12.6599V13.2472C1.38474 13.2141 2.582 13.2803 2.582 13.8986V23.123C2.582 23.7203 1.34852 23.8206 0.886719 23.8206V24.3908C3.15246 24.3227 5.8317 24.3908 8.10146 24.3908C10.491 24.3908 12.6229 23.569 12.6229 21.1306ZM9.15586 15.5032C9.15586 16.9744 8.50793 17.7942 6.80963 17.7942H5.36388V13.2803C5.548 13.2632 6.16373 13.2472 6.34785 13.2472H6.84687C8.58039 13.2472 9.15586 14.0159 9.15586 15.5032ZM27.7475 24.3717C26.6982 24.3717 25.6488 24.3567 24.6004 24.3897V23.8024C25.0793 23.8024 26.4013 23.7704 26.4013 23.1209V14.5279H26.3651L21.5449 24.523H21.0479L16.3574 14.5279H16.3212V23.1209C16.3212 23.7884 17.7016 23.8024 18.1976 23.8024L18.2167 24.3897C16.9088 24.3366 15.1209 24.3045 13.8311 24.3897V23.8024C14.3302 23.8024 15.5264 23.7543 15.5264 23.1209V13.9116C15.5264 13.2952 14.2929 13.2461 13.8311 13.2461L13.814 12.6598C15.3061 12.7239 16.9088 12.7239 18.3998 12.6598L22.4111 21.0383L26.4939 12.6768C27.9326 12.739 29.479 12.7239 30.9147 12.6598V13.2461C30.4358 13.2461 29.1852 13.2802 29.1852 13.9116V23.1209C29.1852 23.7704 30.4177 23.8024 30.9147 23.8024V24.3897C29.8643 24.3567 28.7979 24.3717 27.7475 24.3717ZM45.0833 18.5034C45.0833 14.6278 42.7059 12.455 38.4189 12.455C34.1309 12.455 31.7354 14.6108 31.7354 18.5034C31.7354 22.397 34.1108 24.5698 38.4189 24.5698C42.723 24.5698 45.0833 22.397 45.0833 18.5034ZM41.9694 18.5034C41.9694 20.7945 41.7471 23.9835 38.4189 23.9835C35.0887 23.9835 34.8493 20.7945 34.8493 18.5034C34.8493 16.2163 35.0887 13.0413 38.4189 13.0413C41.729 13.0413 41.9694 16.2314 41.9694 18.5034Z" fill="#0079C1" style="fill:#0079C1;fill:color(display-p3 0.0000 0.4745 0.7569);fill-opacity:1;"/>
<path d="M69.2882 0.0636559C59.9033 0.0636559 52.2871 7.64843 52.2871 17.0001C52.2871 26.3538 59.9033 33.9346 69.2882 33.9346C78.6822 33.9346 86.2943 26.3538 86.2943 17.0001C86.2943 7.64843 78.6822 0.0636559 69.2882 0.0636559Z" fill="#ED1D24" style="fill:#ED1D24;fill:color(display-p3 0.9294 0.1137 0.1412);fill-opacity:1;"/>
<path d="M68.7711 11.8309L65.8192 7.99737C65.7588 7.91783 65.681 7.8531 65.5917 7.80812C65.5023 7.76314 65.4038 7.73911 65.3037 7.73785C65.2037 7.7366 65.1046 7.75815 65.0141 7.80087C64.9237 7.8436 64.8443 7.90635 64.7819 7.98434L61.2676 12.3961V19.3094L64.7618 14.8485C64.8855 14.6912 65.0787 14.59 65.295 14.59C65.5144 14.59 65.7095 14.6942 65.8343 14.8545L68.8003 18.7181C68.8573 18.7939 68.9313 18.8553 69.0163 18.8976C69.1014 18.9399 69.1952 18.9618 69.2902 18.9616C69.4904 18.9616 69.6685 18.8664 69.7812 18.7181L72.7472 14.8545C72.872 14.6942 73.0661 14.59 73.2855 14.59C73.5028 14.59 73.6949 14.6912 73.8187 14.8485L77.3129 19.3094V12.3961L73.7996 7.98434C73.6789 7.83401 73.4937 7.73781 73.2855 7.73781C73.1839 7.73784 73.0837 7.76129 72.9928 7.80632C72.9019 7.85135 72.8226 7.91674 72.7613 7.99737L69.8094 11.8309C69.7481 11.9099 69.6695 11.9739 69.5795 12.0178C69.4894 12.0618 69.3905 12.0846 69.2902 12.0844C69.0789 12.0844 68.8908 11.9852 68.7711 11.8309ZM61.2676 19.3094H77.3129V24.3806H61.2676V19.3094Z" fill="white" style="fill:white;fill-opacity:1;"/>
<path d="M101.736 24.3967V23.8354C102.205 23.8354 103.482 23.8354 103.482 23.206V18.4926H97.6961V23.206C97.6961 23.8354 98.9738 23.8354 99.4427 23.8354V24.3967C97.5834 24.3285 95.4223 24.3285 93.563 24.3967V23.8354C94.0319 23.8354 95.3096 23.8354 95.3096 23.206V13.5928C95.3096 12.9634 94.0127 12.9634 93.563 12.9634V12.4011C95.4042 12.4693 97.6025 12.4693 99.4427 12.4011V12.9634C98.9738 12.9634 97.6961 12.9634 97.6961 13.5928V17.8803H103.482V13.5928C103.482 12.9794 102.186 12.9634 101.736 12.9634V12.4011C103.577 12.4693 105.775 12.4693 107.616 12.4011V12.9634C107.146 12.9634 105.85 12.9634 105.85 13.5928V23.206C105.85 23.8354 107.146 23.8354 107.616 23.8354V24.3967C105.756 24.3285 103.596 24.3285 101.736 24.3967ZM114.172 19.8883C112.387 20.0406 110.94 20.1599 110.94 22.1683C110.94 22.9841 111.222 23.801 112.292 23.801C113.777 23.801 114.172 22.5762 114.172 21.4528V19.8883ZM115.562 24.4303C114.867 24.4303 114.19 24.3291 114.19 23.5634C113.364 24.278 112.537 24.5667 111.39 24.5667C109.569 24.5667 108.648 23.7328 108.648 22.0832C108.648 19.2749 112.086 19.4634 114.172 19.3261V18.0332C114.172 17.1142 113.702 16.604 112.649 16.604C111.447 16.604 111.091 17.1482 111.091 18.1525C111.091 18.5944 110.715 18.6796 110.32 18.6796C109.719 18.6967 109.286 18.6626 109.286 17.9821C109.286 16.3825 111.147 16.0428 112.556 16.0428C114.753 16.0428 116.332 16.3314 116.332 18.6285V22.5251C116.332 23.6817 116.444 23.835 117.742 23.8531V24.3963C117.008 24.3963 116.275 24.4303 115.562 24.4303ZM124.992 18.68C123.339 18.68 124.653 16.876 123.527 16.876C122.306 16.876 122.005 18.9516 122.005 19.7514V23.206C122.005 23.8525 123.095 23.8525 123.584 23.8525V24.3967C121.854 24.3466 120.07 24.3285 118.341 24.3967V23.8525C118.811 23.8525 119.826 23.8184 119.826 23.206V17.4032C119.826 16.7918 118.83 16.7578 118.341 16.7397L118.323 16.2296C119.525 16.2296 120.747 16.2466 121.949 16.1955V17.4894L121.986 17.4714C122.437 16.6716 123.208 16.0422 124.241 16.0422C125.331 16.0422 125.988 16.6385 125.988 17.6257C125.988 18.2721 125.8 18.68 124.992 18.68ZM133.765 18.68C132.112 18.68 133.426 16.876 132.299 16.876C131.079 16.876 130.778 18.9516 130.778 19.7514V23.206C130.778 23.8525 131.868 23.8525 132.357 23.8525V24.3967C130.627 24.3466 128.842 24.3285 127.114 24.3967V23.8525C127.584 23.8525 128.599 23.8184 128.599 23.206V17.4032C128.599 16.7918 127.603 16.7578 127.114 16.7397L127.096 16.2296C128.298 16.2296 129.52 16.2466 130.722 16.1955V17.4894L130.759 17.4714C131.21 16.6716 131.98 16.0422 133.014 16.0422C134.104 16.0422 134.761 16.6385 134.761 17.6257C134.761 18.2721 134.573 18.68 133.765 18.68ZM138.424 14.6301C137.653 14.6301 137.184 14.0859 137.184 13.4224C137.184 12.7589 137.673 12.2308 138.424 12.2308C139.175 12.2308 139.664 12.776 139.664 13.4224C139.664 14.0859 139.175 14.6301 138.424 14.6301ZM135.85 24.3967V23.8525C136.32 23.8525 137.334 23.8014 137.334 23.206V17.3691C137.334 16.8079 136.282 16.7919 135.85 16.7738V16.2296C137.054 16.2296 138.311 16.2807 139.515 16.2126V23.206C139.515 23.8014 140.548 23.8525 141.017 23.8525V24.3967C139.326 24.3285 137.542 24.3285 135.85 24.3967ZM145.413 24.5667C144.379 24.5667 143.309 24.3973 142.332 24.0906V21.556H143.177C143.214 22.8659 143.816 24.0395 145.451 24.0395C146.408 24.0395 147.423 23.6316 147.423 22.6444C147.423 20.636 142.482 21.573 142.482 18.6455C142.482 16.7744 144.059 16.0428 145.92 16.0428C146.84 16.0428 147.724 16.2122 148.588 16.5018V18.6455H147.817C147.685 17.4549 147.235 16.604 145.77 16.604C144.867 16.604 144.229 16.9438 144.229 17.8127C144.229 19.8031 149.19 18.6125 149.19 21.9128C149.19 23.835 147.235 24.5667 145.413 24.5667ZM160.667 18.272H159.052V23.7852H160.253C162.395 23.7852 163.485 22.9163 163.485 20.9429C163.485 19.1049 162.753 18.272 160.667 18.272ZM160.536 12.9793C160.047 12.9793 159.539 12.9793 159.052 13.0314V17.6587H160.611C162.321 17.6587 162.902 16.8248 162.902 15.3456C162.902 13.7631 162.358 12.9793 160.536 12.9793ZM161.363 24.3966C159.22 24.3966 157.06 24.3284 154.918 24.3966V23.8353C155.35 23.8353 156.665 23.7852 156.665 23.2059V13.5927C156.665 12.9974 155.369 12.9452 154.918 12.9633L154.9 12.402C157.134 12.4692 159.389 12.402 161.626 12.402C163.748 12.402 165.402 12.8951 165.402 15.09C165.402 16.8759 164.087 17.6587 162.284 17.8802V17.9483C164.519 18.0846 166.06 18.8844 166.06 21.0792C166.06 23.5627 163.748 24.3966 161.363 24.3966ZM173.536 19.8883C171.751 20.0406 170.304 20.1599 170.304 22.1683C170.304 22.9841 170.587 23.801 171.657 23.801C173.141 23.801 173.536 22.5762 173.536 21.4528V19.8883ZM174.926 24.4303C174.232 24.4303 173.555 24.3291 173.555 23.5634C172.729 24.278 171.901 24.5667 170.755 24.5667C168.933 24.5667 168.012 23.7328 168.012 22.0832C168.012 19.2749 171.451 19.4634 173.536 19.3261V18.0332C173.536 17.1142 173.066 16.604 172.014 16.604C170.811 16.604 170.455 17.1482 170.455 18.1525C170.455 18.5944 170.08 18.6796 169.684 18.6796C169.083 18.6967 168.651 18.6626 168.651 17.9821C168.651 16.3825 170.511 16.0428 171.92 16.0428C174.118 16.0428 175.697 16.3314 175.697 18.6285V22.5251C175.697 23.6817 175.809 23.835 177.106 23.8531V24.3963C176.373 24.3963 175.639 24.4303 174.926 24.4303ZM183.831 24.3967V23.8695C184.3 23.8525 185.202 23.8014 185.202 23.206V18.8334C185.202 17.779 184.996 16.8931 183.623 16.8931C182.046 16.8931 181.481 18.1188 181.481 19.3605V23.206C181.481 23.7502 182.421 23.8525 182.854 23.8525L182.872 24.3806C181.238 24.3115 179.452 24.3285 177.818 24.3967V23.8695C178.307 23.8525 179.302 23.8354 179.302 23.206V17.4202C179.302 16.8079 178.307 16.7738 177.818 16.7578V16.2296C179.02 16.2296 180.223 16.2466 181.426 16.1955V17.4032H181.463C182.327 16.4681 183.191 16.0422 184.563 16.0422C186.611 16.0422 187.381 16.9442 187.381 18.7301V23.206C187.381 23.8014 188.377 23.8525 188.847 23.8525V24.3967C187.212 24.3466 185.465 24.3285 183.831 24.3967ZM195.628 24.38V23.8529C195.778 23.8529 196.304 23.8689 196.248 23.6314C196.192 23.3928 195.797 23.0521 195.59 22.7805C195.065 22.1341 194.557 21.4876 194.012 20.8582C193.993 20.8402 193.768 20.5005 193.768 20.5005L193.016 21.1639V23.2565C193.016 23.9371 193.975 23.8529 194.481 23.8529V24.3961C192.81 24.3289 191.043 24.3289 189.372 24.3961V23.8529C189.822 23.8529 190.836 23.7847 190.836 23.2054V13.1502C190.836 12.5378 189.878 12.5038 189.39 12.4857L189.372 11.9586C190.574 11.9586 191.814 11.9926 193.016 11.9245L192.997 20.3812C192.997 20.3812 196.004 17.1992 196.004 16.8935C196.004 16.7572 195.309 16.7231 195.178 16.7231V16.23H198.898V16.7061H198.672C198.258 16.7061 197.413 16.7231 197.112 16.9787C196.361 17.6071 195.121 19.0883 195.121 19.0883L198.559 23.1714C198.934 23.6133 199.536 23.8529 200.12 23.8689V24.3961C198.635 24.3119 197.093 24.38 195.628 24.38ZM88.0036 9.06406C87.0589 9.06406 86.2932 8.28635 86.2932 7.33023C86.2932 6.37211 87.0589 5.59739 88.0036 5.59739C88.9483 5.59739 89.715 6.37211 89.715 7.33023C89.715 8.28635 88.9483 9.06406 88.0036 9.06406ZM88.0036 5.31678C86.8878 5.31678 85.9844 6.21777 85.9844 7.33023C85.9844 8.44069 86.8878 9.34268 88.0036 9.34268C89.1184 9.34268 90.0228 8.44069 90.0228 7.33023C90.0228 6.21777 89.1184 5.31678 88.0036 5.31678Z" fill="#0079C1" style="fill:#0079C1;fill:color(display-p3 0.0000 0.4745 0.7569);fill-opacity:1;"/>
<path d="M87.5541 7.21706V6.41628H88.0401C88.4516 6.41628 88.6387 6.53855 88.6387 6.81817C88.6387 7.09779 88.4516 7.21706 88.0401 7.21706H87.5541ZM88.9385 6.82719C88.9385 6.3792 88.677 6.17475 88.1719 6.17475H87.2734V8.48486H87.5541V7.46059H88.0401L88.694 8.48486H89.0321L88.3389 7.46059C88.7111 7.40146 88.9385 7.1489 88.9385 6.82719Z" fill="#0079C1" style="fill:#0079C1;fill:color(display-p3 0.0000 0.4745 0.7569);fill-opacity:1;"/>
</g>
</g>
<defs>
<clipPath id="clip0_552_1025">
<rect width="201" height="34" fill="white" style="fill:white;fill-opacity:1;"/>
</clipPath>
</defs>
</svg>
