<svg width="85" height="77" viewBox="0 0 85 77" fill="none" xmlns="http://www.w3.org/2000/svg">
<g clip-path="url(#clip0_552_1000)">
<path d="M0.3125 0.122314H84.6877V76.8779H0.3125V0.122314Z" fill="#B00B1C" style="fill:#B00B1C;fill:color(display-p3 0.6902 0.0431 0.1098);fill-opacity:1;"/>
<path d="M4.25195 53.8318V62.1513C17.5706 54.6362 42.8387 43.4001 81.0196 40.2762V38.48C52.9564 40.0155 26.4477 45.2488 4.25195 53.8318Z" fill="#FFD401" style="fill:#FFD401;fill:color(display-p3 1.0000 0.8314 0.0039);fill-opacity:1;"/>
<path d="M4.25195 65.211V70.9223C23.2575 56.8435 51.0903 47.1544 81.0196 43.9524V42.2197C51.4458 44.8908 25.4535 52.8677 4.25195 65.211Z" fill="white" style="fill:white;fill-opacity:1;"/>
<path d="M46.7202 19.4883C45.9226 19.4883 45.4304 19.4279 45.1851 19.3785V13.8141C45.1851 12.7877 45.2234 11.8299 45.3198 11.1716C45.6272 11.0719 46.4797 10.934 47.1139 10.934C50.1565 10.934 51.4958 12.2187 51.4958 15.0198C51.4958 18.9105 48.5534 19.4622 46.7202 19.4883ZM52.2434 26.8944C52.2434 30.7182 50.1076 32.2799 46.8898 32.2799C46.235 32.2799 45.5859 32.2038 45.1851 32.0858V21.3263H46.6021C50.6611 21.3261 52.2434 23.3851 52.2434 26.8944ZM50.9544 20.0686C53.8474 19.2588 56.2807 17.1955 56.2807 14.064C56.2807 11.0604 54.3241 9.04086 50.3185 9.04086C48.4052 9.04086 46.0036 9.23551 44.2705 9.23551C42.5681 9.23551 40.7568 9.21641 38.682 9.10715L38.5507 9.08945V10.4848L38.6728 10.4944C40.4092 10.6253 40.5372 10.9595 40.5372 13.7626V30.3368C40.5372 31.8198 40.3437 32.5431 38.9852 32.6507L38.585 32.6827V34.0545C39.9029 33.9739 42.3428 33.9143 43.404 33.9143C44.4693 33.9143 45.285 33.9736 46.624 34.0278C54.6284 34.3811 57.2339 29.838 57.2339 26.1869C57.2339 21.8238 54.0229 20.7267 50.9583 20.1037L50.9544 20.0686ZM25.9234 30.6868C24.3366 31.6715 22.4882 32.0855 20.3988 32.0855C14.7493 32.0855 11.9413 27.7396 11.9413 20.8477C11.9413 14.7769 14.6323 10.7654 19.7868 10.7654C21.5435 10.7654 22.9638 11.3884 23.9017 12.274C24.057 12.8405 24.2648 15.8004 24.2648 15.8004L25.7057 15.8052V15.6976C25.7189 14.4157 26.0769 11.435 26.3472 9.93545L26.3582 9.82029L26.2522 9.81439C24.2286 9.27679 22.1661 8.82178 19.4209 8.82178C13.2044 8.82178 6.86133 12.5776 6.86133 21.2741C6.86133 30.3938 12.4312 34.3494 19.1486 34.3494C20.9894 34.3494 23.4321 34.0691 25.4045 32.9899L25.4354 32.9767L26.3914 31.1626L26.003 30.6379L25.9234 30.6868ZM77.885 30.6868C76.3018 31.6715 74.4557 32.0855 72.3593 32.0855C66.7132 32.0855 63.9066 27.7396 63.9066 20.8477C63.9066 14.7769 66.5979 10.7654 71.7509 10.7654C73.5096 10.7654 74.9293 11.3884 75.8668 12.274C76.0183 12.8405 76.227 15.8004 76.227 15.8004L77.6744 15.8052L77.6668 15.6976C77.6825 14.4157 78.0377 11.435 78.3089 9.93545L78.3235 9.82029L78.218 9.81439C76.1885 9.27679 74.1267 8.82178 71.3802 8.82178C65.168 8.82178 58.8255 12.5776 58.8255 21.2741C58.8255 30.3938 64.3951 34.3494 71.1161 34.3494C72.9507 34.3494 75.3996 34.0691 77.3709 32.9899L77.3987 32.9767L78.3555 31.1626L77.9677 30.6379L77.885 30.6868ZM32.4251 9.23551C30.9721 9.23551 29.3375 9.21641 27.9504 9.10041L27.8404 9.08945V10.4722L27.9368 10.4773C29.754 10.5919 29.9917 10.889 29.9917 14.0295V29.7672C29.9917 32.172 29.8744 32.5428 28.0243 32.661L27.9248 32.6714V34.0539L28.0356 34.0418C29.432 33.9199 30.9114 33.8977 32.3592 33.8977C33.7832 33.8977 35.1459 33.9199 36.6525 34.0418L36.7625 34.0539V32.6714L36.6688 32.661C34.8227 32.5428 34.7187 32.1718 34.7187 29.7672V14.0295C34.7187 10.8373 34.834 10.5916 36.6618 10.4773L36.7563 10.4722V9.08945L36.6455 9.10041C35.1462 9.21641 33.8527 9.23551 32.4251 9.23551Z" fill="#FFD401" style="fill:#FFD401;fill:color(display-p3 1.0000 0.8314 0.0039);fill-opacity:1;"/>
</g>
<defs>
<clipPath id="clip0_552_1000">
<rect width="85" height="77" fill="white" style="fill:white;fill-opacity:1;"/>
</clipPath>
</defs>
</svg>
