<svg width="168" height="26" viewBox="0 0 168 26" fill="none" xmlns="http://www.w3.org/2000/svg">
<g clip-path="url(#clip0_552_747)">
<path d="M31.778 23.0688L16.9404 15.9242V0.206055L31.778 23.0688ZM32.9577 25.7937L16.9404 19.0313V25.7937H32.9577Z" fill="#98002E" style="fill:#98002E;fill:color(display-p3 0.5961 0.0000 0.1804);fill-opacity:1;"/>
<path d="M2.10254 23.0688L16.9401 0.206055V15.9242L2.10254 23.0688Z" fill="#E31837" style="fill:#E31837;fill:color(display-p3 0.8902 0.0941 0.2157);fill-opacity:1;"/>
<path d="M0.922852 25.7937H16.9401V19.0312L0.922852 25.7937Z" fill="#E31837" style="fill:#E31837;fill:color(display-p3 0.8902 0.0941 0.2157);fill-opacity:1;"/>
<path d="M34.2538 21.1082C34.8353 21.1082 35.3172 21.5734 35.3172 22.1549C35.3172 22.7365 34.852 23.2183 34.2704 23.2183C33.6889 23.2183 33.207 22.7531 33.207 22.1715C33.207 21.5734 33.6723 21.1082 34.2538 21.1082ZM34.2538 23.0522C34.7523 23.0522 35.151 22.6534 35.151 22.1549C35.151 21.6565 34.7523 21.2577 34.2538 21.2577C33.7553 21.2577 33.3566 21.6565 33.3566 22.1549C33.3566 22.6534 33.7553 23.0522 34.2538 23.0522ZM34.0212 22.7697H33.8716V21.5568H34.3369C34.6193 21.5568 34.719 21.6731 34.719 21.8891C34.7356 22.0718 34.5861 22.2214 34.42 22.238L34.7855 22.7697H34.6193L34.2538 22.238H34.0378L34.0212 22.7697ZM34.0212 22.0885H34.2206C34.3867 22.0885 34.5695 22.0718 34.5695 21.8725C34.5695 21.7229 34.42 21.6731 34.3036 21.6731H34.0378V22.0885H34.0212Z" fill="#98002E" style="fill:#98002E;fill:color(display-p3 0.5961 0.0000 0.1804);fill-opacity:1;"/>
<path d="M45.4688 23.0687H52.6632C60.0737 23.0687 64.4767 19.2306 64.4767 12.8669C64.4767 6.50318 60.0737 2.68164 52.6632 2.68164H45.4688V23.0687ZM50.0214 6.22072H52.6632C57.4651 6.22072 59.8743 8.59672 59.8743 12.8669C59.8743 17.137 57.4651 19.513 52.6632 19.513H50.0214V6.22072Z" fill="#003D79" style="fill:#003D79;fill:color(display-p3 0.0000 0.2392 0.4745);fill-opacity:1;"/>
<path d="M88.6184 10.6903H79.9618V6.22072H89.7483V2.68164H75.3926V23.0687H90.064V19.5296H79.9618V14.2293H88.6184V10.6903Z" fill="#003D79" style="fill:#003D79;fill:color(display-p3 0.0000 0.2392 0.4745);fill-opacity:1;"/>
<path d="M107.228 2.68164H102.659V23.0687H116.018V19.5296H107.228V2.68164Z" fill="#003D79" style="fill:#003D79;fill:color(display-p3 0.0000 0.2392 0.4745);fill-opacity:1;"/>
<path d="M122.314 6.22072H129.16V23.0687H133.746V6.22072H140.608V2.68164H122.314V6.22072Z" fill="#003D79" style="fill:#003D79;fill:color(display-p3 0.0000 0.2392 0.4745);fill-opacity:1;"/>
<path d="M167.076 23.0688H162.308L160.314 17.9679H152.023L150.029 23.0688H145.576L154.1 2.59863H158.702L167.076 23.0688ZM159.018 14.5451L156.177 7.30079L153.319 14.5451H159.018Z" fill="#003D79" style="fill:#003D79;fill:color(display-p3 0.0000 0.2392 0.4745);fill-opacity:1;"/>
</g>
<defs>
<clipPath id="clip0_552_747">
<rect width="168" height="26" fill="white" style="fill:white;fill-opacity:1;"/>
</clipPath>
</defs>
</svg>
