<svg width="253" height="55" viewBox="0 0 253 55" fill="none" xmlns="http://www.w3.org/2000/svg">
<path d="M1.38965 49.7467H251.609V6.375H1.38965V49.7467Z" fill="#FEE60E" style="fill:#FEE60E;fill:color(display-p3 0.9961 0.9020 0.0549);fill-opacity:1;"/>
<path d="M3.96784 47.312H249.254V8.69678H3.96777L3.96784 47.312Z" fill="#008350" style="fill:#008350;fill:color(display-p3 0.0000 0.5137 0.3137);fill-opacity:1;"/>
<path d="M21.8901 37.818C27.3554 37.818 30.9283 35.0209 30.9283 27.7283C30.9283 21.353 27.5209 18.4473 22.0323 18.4473H14.5557V37.8179L21.8901 37.818ZM20.1399 22.9675H21.2037C24.1859 22.9675 25.344 24.0443 25.344 28.0791C25.344 31.7384 23.9247 33.2978 21.3227 33.2978H20.1399V22.9675ZM41.2682 17.9357C35.9684 17.9357 32.3476 21.8907 32.3476 27.9718C32.3476 34.5615 35.9206 38.3282 41.2682 38.3282C46.3084 38.3282 50.2121 34.6166 50.2121 28.0254C50.2121 22.9124 47.3489 17.9357 41.2682 17.9357ZM41.2218 22.6704C43.6816 22.5907 44.6279 25.3878 44.6279 28.0254C44.6279 31.2253 43.6816 33.5934 41.2682 33.5934C38.5937 33.5934 37.9319 30.4992 37.9319 28.0254C37.9319 25.5762 38.6895 22.6704 41.2218 22.6704ZM52.9318 37.818V18.4473H58.5161V33.2978H66.1814V37.818H52.9318ZM68.7138 37.818V18.4473H74.2981V33.2978H81.9635V37.818H68.7138ZM88.4214 37.818L89.0613 35.2629H94.621L95.2828 37.818H100.844L94.7386 18.4473H89.0614L82.9561 37.818H88.4214ZM93.6502 31.2253H90.1252L91.8521 24.2848L93.6502 31.2253ZM109.834 31.0659C112.436 31.0659 112.815 31.8993 112.815 34.4282C112.815 36.1513 112.959 37.3876 113.099 37.818H118.755V37.2267C118.092 37.2267 118.164 36.3644 118.164 33.8369C118.164 29.9355 117.074 29.4515 115.276 28.6993C117.264 28.079 118.14 26.1964 118.14 23.9632C118.14 20.198 116.27 18.4473 110.592 18.4473H102.548V37.8179H108.13V31.0659H109.834ZM108.13 22.9675H110.734C112.034 22.9675 112.982 23.6139 112.982 24.9849C112.982 26.3313 112.059 26.8153 110.331 26.8153H108.13V22.9675ZM125.236 37.818L125.876 35.2629H131.436L132.099 37.818H137.66L131.555 18.4473H125.876L119.772 37.818H125.236ZM130.466 31.2253H126.94L128.668 24.2848L130.466 31.2253ZM139.338 37.818V18.4473H146.08L149.087 30.5268L152.091 18.4473H158.833V37.8179H153.818V31.8992L153.889 28.8862L154.172 25.3877H154.126L151.026 37.8179H147.147L144.045 25.3877H143.999L144.235 28.2399L144.356 31.2528V37.8179L139.338 37.818ZM165.979 37.818L166.619 35.2629H172.18L172.842 37.818H178.402L172.296 18.4473H166.619L160.515 37.818H165.979ZM171.209 31.2253H167.683L169.41 24.2848L171.209 31.2253ZM210.388 53.4989L197.842 45.415L191.648 31.8152L193.771 17.0154L203.535 5.71274L217.844 1.50122L232.153 5.71274L241.919 17.0154L244.043 31.8152L237.846 45.415L225.301 53.4989H210.388Z" fill="#FEE60E" style="fill:#FEE60E;fill:color(display-p3 0.9961 0.9020 0.0549);fill-opacity:1;"/>
<path d="M211.086 51.0685L199.714 43.7396L194.098 31.4094L196.021 17.9937L204.873 7.75035L217.845 3.93164L230.818 7.75041L239.67 17.9937L241.593 31.4094L235.978 43.7396L224.605 51.0685H211.086Z" fill="#008350" style="fill:#008350;fill:color(display-p3 0.0000 0.5137 0.3137);fill-opacity:1;"/>
<path d="M213.695 10.5864H223.139V41.5221H225.714V44.4134H210.261V41.5221H212.55V20.7051H209.975L213.695 10.5864ZM204.072 23.4659C202.021 23.7992 200.084 24.605 200.084 27.3224C200.084 29.9686 202.197 30.5107 204.072 31.1411V33.8918C203.221 33.7005 202.758 33.0353 202.758 32.0687H199.86C199.894 34.8034 201.766 36.17 204.072 36.2599V37.9584H205.401V36.2599C207.722 36.17 209.676 35.2077 209.676 32.3339C209.676 29.7064 207.401 28.9499 205.401 28.2847V25.8499C206.215 25.8311 206.696 26.5325 206.744 27.234H209.515C209.547 24.534 207.498 23.5876 205.401 23.4659V22.379H204.072V23.4659ZM205.401 31.4396C206.185 31.6151 206.791 32.0687 206.791 32.8411C206.791 33.5759 206.056 33.9976 205.401 33.9976L205.401 31.4396ZM204.072 28.0209C203.558 27.7933 202.87 27.6542 202.87 26.8122C202.87 26.1485 203.622 25.7093 204.072 25.7441V28.0209Z" fill="#FEE60E" style="fill:#FEE60E;fill:color(display-p3 0.9961 0.9020 0.0549);fill-opacity:1;"/>
<path d="M223.054 39.2353C223.113 39.0425 223.193 38.8049 223.119 38.6149C223.092 38.541 223.031 38.4788 222.946 38.5106C222.777 38.5758 222.394 39.1005 222.292 39.2483C222.01 39.6845 221.851 40.1585 221.711 40.6497C222.01 40.5106 222.32 40.428 222.643 40.4135L223.054 39.2353ZM221.134 44.2729C221.111 44.4641 221.029 44.8236 220.828 44.9004C220.584 44.9946 220.411 44.7323 220.337 44.541C220.122 44.0163 220.153 43.3975 220.352 42.6164C220.574 41.741 220.771 40.67 221.012 39.2411L220.983 39.228L219.922 41.47L219.688 40.9874L221.337 36.8918C221.487 36.5194 221.559 36.1397 221.961 35.9846C222.111 35.9281 222.47 35.8498 222.547 36.0513C222.637 36.2846 222.282 37.0049 222.18 37.2498C221.967 37.7686 221.788 38.2874 221.759 38.844L221.79 38.857C222.119 38.3541 222.922 37.2455 223.494 37.0251C223.779 36.915 224.025 37.0773 224.131 37.3527C224.354 37.9338 224.105 38.8686 223.321 40.3715C224.257 40.086 224.403 39.8352 225.164 38.4266L225.425 38.8845C224.935 39.9483 224.273 41.0758 223.128 41.515C222.842 41.6251 222.597 41.6222 222.293 41.5918C222.147 41.6859 222 41.7787 221.83 41.8439C221.681 41.9004 221.531 41.9208 221.382 41.9424L221.134 44.2729Z" fill="#FEE60E" style="fill:#FEE60E;fill:color(display-p3 0.9961 0.9020 0.0549);fill-opacity:1;"/>
<path d="M225.943 36.9717C226.427 35.9848 226.694 34.7153 226.651 34.0384C226.231 34.4921 225.993 35.6775 225.914 36.9586L225.943 36.9717ZM228.683 37.5485C228.333 38.376 227.747 39.8282 226.836 40.1774C226.061 40.4746 225.602 39.7876 225.361 39.1629C224.935 38.0514 224.952 36.6717 225.315 35.5601C225.804 34.0486 226.432 32.6761 226.772 32.5472C226.953 32.4776 227.093 32.7152 227.135 32.8573C227.448 33.892 227.531 34.9297 226.084 38.0355C226.058 38.2528 226.141 38.5615 226.292 38.7948C226.48 39.0021 226.711 39.1572 226.997 39.047C227.58 38.8224 228.136 37.8326 228.413 37.2876L228.683 37.5485Z" fill="#FEE60E" style="fill:#FEE60E;fill:color(display-p3 0.9961 0.9020 0.0549);fill-opacity:1;"/>
<path d="M231.024 35.2179C231.169 34.9309 231.822 33.5266 232.086 33.4251C232.172 33.3918 232.299 33.3802 232.555 33.9135C232.674 34.1599 232.481 34.5136 232.368 34.7266C232.147 35.1643 231.716 36.2889 231.899 36.7656C231.964 36.9352 232.083 36.9613 232.253 36.8976C232.656 36.7425 233.283 35.6512 233.504 35.2758L233.742 35.7063C233.401 36.4323 232.745 38.0816 231.961 38.3816C231.568 38.5323 231.21 38.2932 231.067 37.9236C230.944 37.6048 230.947 37.2642 230.947 36.9483L230.918 36.9352C230.642 37.4541 230.298 38.6801 229.715 38.9033C229.195 39.1018 228.682 38.6193 228.506 38.1642C228.111 37.1367 228.499 35.7729 229.007 35.0672C229.118 34.915 229.249 34.841 229.429 34.7729C229.577 34.715 230.081 34.4135 230.162 34.7469C230.205 34.9237 230.033 35.3309 229.953 35.4701C229.767 35.9671 229.74 36.0874 229.441 36.5425C229.201 36.9004 229.036 37.2309 229.207 37.6758C229.227 37.7294 229.279 37.8309 229.353 37.8033C229.544 37.7294 230.009 37.199 230.336 36.5628L231.024 35.2179Z" fill="#FEE60E" style="fill:#FEE60E;fill:color(display-p3 0.9961 0.9020 0.0549);fill-opacity:1;"/>
<path d="M233.635 35.6151C234.036 35.4861 234.394 35.7252 234.702 35.9223C235.188 35.2861 235.288 35.0411 235.083 34.4151C234.931 34.1409 234.773 33.8694 234.612 33.6006L233.635 35.6151ZM237.154 34.0108L237.415 34.3716C237.016 35.2658 236.231 36.673 235.366 36.9556C234.645 37.1961 233.705 37.0947 233.217 36.3948C233.178 36.4832 233.131 36.586 233.036 36.6223C232.93 36.6629 232.815 36.586 232.779 36.4904C232.725 36.3527 232.838 36.1397 232.891 36.0223L234.381 33.0325C234.268 32.6745 234.339 32.2586 234.721 32.1123C235.038 31.9905 235.14 32.0615 235.285 32.3455C235.482 32.731 235.78 33.031 235.958 33.4962C236.292 34.3643 235.841 35.2788 235.321 35.9527C236.046 35.8092 236.337 35.3324 236.706 34.7412L237.154 34.0108Z" fill="#FEE60E" style="fill:#FEE60E;fill:color(display-p3 0.9961 0.9020 0.0549);fill-opacity:1;"/>
<path d="M223.054 39.2354C223.114 39.0426 223.194 38.805 223.12 38.6151C223.092 38.5412 223.031 38.4789 222.947 38.5107C222.777 38.576 222.394 39.1006 222.292 39.2484C222.011 39.6846 221.851 40.1586 221.712 40.6499C222.011 40.5107 222.32 40.4281 222.644 40.4136L223.054 39.2354Z" stroke="#278555" style="stroke:#278555;stroke:color(display-p3 0.1529 0.5216 0.3333);stroke-opacity:1;" stroke-width="3.3515"/>
<path d="M221.134 44.2729C221.111 44.4642 221.029 44.8237 220.828 44.9004C220.584 44.9946 220.41 44.7324 220.337 44.5425C220.122 44.0164 220.153 43.3976 220.352 42.6165C220.574 41.7411 220.771 40.6701 221.012 39.2412L220.983 39.228L219.922 41.4701L219.688 40.9875L221.337 36.8919C221.487 36.5194 221.559 36.1397 221.961 35.9847C222.111 35.9282 222.47 35.8513 222.547 36.0513C222.637 36.2847 222.282 37.005 222.18 37.2499C221.967 37.7687 221.788 38.2875 221.759 38.844L221.788 38.8571C222.119 38.3542 222.92 37.2455 223.494 37.0252C223.779 36.9151 224.025 37.0774 224.131 37.3527C224.354 37.9339 224.105 38.8687 223.321 40.373C224.257 40.086 224.403 39.8353 225.164 38.4267L225.425 38.8846C224.933 39.9484 224.273 41.0759 223.128 41.515C222.842 41.6252 222.597 41.6222 222.293 41.5932C222.147 41.686 222 41.7788 221.83 41.844C221.681 41.9005 221.531 41.9222 221.382 41.9425L221.134 44.2729ZM225.943 36.973C226.426 35.9861 226.694 34.7166 226.651 34.0398C226.231 34.4933 225.993 35.6789 225.914 36.96L225.943 36.973Z" stroke="#278555" style="stroke:#278555;stroke:color(display-p3 0.1529 0.5216 0.3333);stroke-opacity:1;" stroke-width="3.3515"/>
<path d="M228.684 37.55C228.333 38.3775 227.748 39.8282 226.835 40.1789C226.061 40.476 225.603 39.7891 225.362 39.1644C224.935 38.0528 224.951 36.6732 225.315 35.5616C225.805 34.0485 226.433 32.6776 226.773 32.5472C226.952 32.4791 227.093 32.7167 227.135 32.8588C227.447 33.892 227.53 34.9312 226.085 38.037C226.059 38.2529 226.141 38.5615 226.291 38.7963C226.481 39.0021 226.71 39.1572 226.997 39.0485C227.579 38.8238 228.135 37.8325 228.412 37.2891L228.684 37.55Z" stroke="#278555" style="stroke:#278555;stroke:color(display-p3 0.1529 0.5216 0.3333);stroke-opacity:1;" stroke-width="3.3515"/>
<path d="M231.023 35.2194C231.168 34.9324 231.821 33.5281 232.085 33.4266C232.171 33.3933 232.298 33.3817 232.554 33.9151C232.673 34.1614 232.48 34.515 232.367 34.728C232.146 35.1657 231.715 36.2903 231.898 36.7671C231.963 36.9367 232.082 36.9628 232.252 36.899C232.655 36.744 233.282 35.6527 233.503 35.2773L233.741 35.7077C233.4 36.4338 232.744 38.0831 231.96 38.3831C231.567 38.5338 231.209 38.2947 231.066 37.9251C230.943 37.6063 230.946 37.2657 230.946 36.9498L230.917 36.9367C230.641 37.4555 230.297 38.6816 229.714 38.9048C229.194 39.1034 228.681 38.6207 228.505 38.1657C228.11 37.1382 228.498 35.7744 229.006 35.0686C229.117 34.9165 229.248 34.8425 229.428 34.7744C229.576 34.7164 230.08 34.415 230.161 34.7484C230.204 34.9251 230.032 35.3324 229.952 35.4715C229.766 35.9686 229.739 36.0889 229.44 36.5439C229.2 36.9019 229.035 37.2324 229.206 37.6773C229.226 37.7309 229.278 37.8323 229.352 37.8048C229.543 37.7309 230.008 37.2005 230.335 36.5643L231.023 35.2194Z" stroke="#278555" style="stroke:#278555;stroke:color(display-p3 0.1529 0.5216 0.3333);stroke-opacity:1;" stroke-width="3.3515"/>
<path d="M233.634 35.6151C234.034 35.4861 234.393 35.7252 234.7 35.9223C235.187 35.2861 235.287 35.0412 235.082 34.4151C234.929 34.141 234.772 33.8694 234.61 33.6006L233.634 35.6151Z" stroke="#278555" style="stroke:#278555;stroke:color(display-p3 0.1529 0.5216 0.3333);stroke-opacity:1;" stroke-width="3.3515"/>
<path d="M237.153 34.0108L237.414 34.3731C237.015 35.2658 236.23 36.673 235.366 36.9556C234.644 37.1976 233.703 37.0962 233.216 36.3962C233.176 36.4832 233.13 36.5861 233.036 36.6223C232.93 36.6629 232.814 36.586 232.777 36.4904C232.725 36.3527 232.837 36.1397 232.889 36.0223L234.379 33.0325C234.266 32.6745 234.337 32.2586 234.72 32.1123C235.038 31.9905 235.138 32.0615 235.284 32.3455C235.481 32.7325 235.778 33.031 235.957 33.4977C236.292 34.3658 235.839 35.2803 235.32 35.9528C236.044 35.8092 236.336 35.3324 236.704 34.7426L237.153 34.0108Z" stroke="#278555" style="stroke:#278555;stroke:color(display-p3 0.1529 0.5216 0.3333);stroke-opacity:1;" stroke-width="3.3515"/>
<path d="M223.054 39.2353C223.113 39.0425 223.193 38.8049 223.119 38.6149C223.092 38.541 223.031 38.4788 222.946 38.5106C222.777 38.5758 222.394 39.1005 222.292 39.2483C222.01 39.6845 221.851 40.1585 221.711 40.6497C222.01 40.5106 222.32 40.428 222.643 40.4135L223.054 39.2353ZM221.134 44.2729C221.111 44.4641 221.029 44.8236 220.828 44.9004C220.584 44.9946 220.411 44.7323 220.337 44.541C220.122 44.0163 220.153 43.3975 220.352 42.6164C220.574 41.741 220.771 40.67 221.012 39.2411L220.983 39.228L219.922 41.47L219.688 40.9874L221.337 36.8918C221.487 36.5194 221.559 36.1397 221.961 35.9846C222.111 35.9281 222.47 35.8498 222.547 36.0513C222.637 36.2846 222.282 37.0049 222.18 37.2498C221.967 37.7686 221.788 38.2874 221.759 38.844L221.79 38.857C222.119 38.3541 222.922 37.2455 223.494 37.0251C223.779 36.915 224.025 37.0773 224.131 37.3527C224.354 37.9338 224.105 38.8686 223.321 40.3715C224.257 40.086 224.403 39.8352 225.164 38.4266L225.425 38.8845C224.935 39.9483 224.273 41.0758 223.128 41.515C222.842 41.6251 222.597 41.6222 222.293 41.5918C222.147 41.6859 222 41.7787 221.83 41.8439C221.681 41.9004 221.531 41.9208 221.382 41.9424L221.134 44.2729Z" fill="#FEE60E" style="fill:#FEE60E;fill:color(display-p3 0.9961 0.9020 0.0549);fill-opacity:1;"/>
<path d="M225.943 36.9717C226.427 35.9848 226.694 34.7153 226.651 34.0384C226.231 34.4921 225.993 35.6775 225.914 36.9586L225.943 36.9717ZM228.683 37.5485C228.333 38.376 227.747 39.8282 226.836 40.1774C226.061 40.4746 225.602 39.7876 225.361 39.1629C224.935 38.0514 224.952 36.6717 225.315 35.5601C225.804 34.0486 226.432 32.6761 226.772 32.5472C226.953 32.4776 227.093 32.7152 227.135 32.8573C227.448 33.892 227.531 34.9297 226.084 38.0355C226.058 38.2528 226.141 38.5615 226.292 38.7948C226.48 39.0021 226.711 39.1572 226.997 39.047C227.58 38.8224 228.136 37.8326 228.413 37.2876L228.683 37.5485Z" fill="#FEE60E" style="fill:#FEE60E;fill:color(display-p3 0.9961 0.9020 0.0549);fill-opacity:1;"/>
<path d="M231.024 35.2179C231.169 34.9309 231.822 33.5266 232.086 33.4251C232.172 33.3918 232.299 33.3802 232.555 33.9135C232.674 34.1599 232.481 34.5136 232.368 34.7266C232.147 35.1643 231.716 36.2889 231.899 36.7656C231.964 36.9352 232.083 36.9613 232.253 36.8976C232.656 36.7425 233.283 35.6512 233.504 35.2758L233.742 35.7063C233.401 36.4323 232.745 38.0816 231.961 38.3816C231.568 38.5323 231.21 38.2932 231.067 37.9236C230.944 37.6048 230.947 37.2642 230.947 36.9483L230.918 36.9352C230.642 37.4541 230.298 38.6801 229.715 38.9033C229.195 39.1018 228.682 38.6193 228.506 38.1642C228.111 37.1367 228.499 35.7729 229.007 35.0672C229.118 34.915 229.249 34.841 229.429 34.7729C229.577 34.715 230.081 34.4135 230.162 34.7469C230.205 34.9237 230.033 35.3309 229.953 35.4701C229.767 35.9671 229.74 36.0874 229.441 36.5425C229.201 36.9004 229.036 37.2309 229.207 37.6758C229.227 37.7294 229.279 37.8309 229.353 37.8033C229.544 37.7294 230.009 37.199 230.336 36.5628L231.024 35.2179Z" fill="#FEE60E" style="fill:#FEE60E;fill:color(display-p3 0.9961 0.9020 0.0549);fill-opacity:1;"/>
<path d="M233.635 35.6151C234.036 35.4861 234.394 35.7252 234.702 35.9223C235.188 35.2861 235.288 35.0411 235.083 34.4151C234.931 34.1409 234.773 33.8694 234.612 33.6006L233.635 35.6151ZM237.154 34.0108L237.415 34.3716C237.016 35.2658 236.231 36.673 235.366 36.9556C234.645 37.1961 233.705 37.0947 233.217 36.3948C233.178 36.4832 233.131 36.586 233.036 36.6223C232.93 36.6629 232.815 36.586 232.779 36.4904C232.725 36.3527 232.838 36.1397 232.891 36.0223L234.381 33.0325C234.268 32.6745 234.339 32.2586 234.721 32.1123C235.038 31.9905 235.14 32.0615 235.285 32.3455C235.482 32.731 235.78 33.031 235.958 33.4962C236.292 34.3643 235.841 35.2788 235.321 35.9527C236.046 35.8092 236.337 35.3324 236.706 34.7412L237.154 34.0108Z" fill="#FEE60E" style="fill:#FEE60E;fill:color(display-p3 0.9961 0.9020 0.0549);fill-opacity:1;"/>
</svg>
