<svg width="834" height="258" viewBox="0 0 834 258" fill="none" xmlns="http://www.w3.org/2000/svg">
<path d="M434.856 3.57617L436.569 5.01953C445.028 12.0827 456.017 20.4304 465.126 29.3848L466.062 30.3135L466.066 30.3184L468.11 32.3594C554.775 118.396 658.482 162.947 779.941 166.387H779.94C790.395 166.671 801.002 168.393 810.49 173.614C820.34 179.034 827.655 187.487 832.582 198.807L833.828 201.67V258H742.064C742.064 257.926 742.064 257.852 742.064 257.778C617.427 245.73 508.899 196.971 416.97 111.786C324.531 197.097 216.451 245.885 91.7969 257.721C91.7968 257.814 91.7969 257.907 91.7969 258H0C0.0168261 244.085 0.0306273 230.172 0.0361328 216.265C0.0372615 202.611 3.82921 190.096 13.0752 180.796C22.1578 171.661 34.5074 167.649 47.541 166.673L53.1904 166.253C81.3564 164.183 108.369 162.528 134.679 157.424L134.685 157.423L136.827 157.003C227.398 139.019 304.494 94.9367 369.847 28.2461C379.001 18.8998 391.062 10.2028 398.979 3.53027L403.168 0H430.654L434.856 3.57617Z" fill="#A20F0F" style="fill:#A20F0F;fill:color(display-p3 0.6353 0.0588 0.0588);fill-opacity:1;"/>
</svg>
