<svg width="178" height="119" viewBox="0 0 178 119" fill="none" xmlns="http://www.w3.org/2000/svg">
<path d="M148.386 81.2829C147.573 81.1066 147.331 80.9523 147.221 80.5557C147.089 80.0048 146.65 79.8725 144.254 79.6522C142.914 79.52 142.76 79.542 142.54 79.9827C142.365 80.3133 142.079 80.4455 141.53 80.4455C140.695 80.4455 139.486 79.8505 139.332 79.3437C139.156 78.7707 138.783 74.0329 138.783 72.27C138.783 70.3309 138.365 68.9205 137.53 68.0611C136.036 66.4966 133.091 68.1493 132.169 71.0801C132.015 71.5649 131.839 73.6363 131.773 75.7077L131.641 79.4318L131.07 79.7624C130.542 80.0709 130.389 80.0488 129.268 79.4538C128.081 78.8589 127.993 78.8589 126.675 79.1013C125.928 79.2555 125.137 79.4979 124.939 79.6301C124.28 80.0268 122.785 79.4538 122.588 78.7267C122.5 78.3961 122.434 75.2229 122.434 71.6751C122.412 65.7473 122.434 65.1964 122.807 64.9981C123.005 64.8659 123.181 64.6235 123.181 64.4472C123.181 64.2489 122.61 64.7116 121.906 65.4388C120.522 66.9152 119.885 67.1136 119.05 66.3423C118.434 65.7473 118.434 64.7777 119.028 64.2268C119.511 63.8081 123.071 59.8196 124.939 57.66C132.169 49.1761 133.465 47.8539 135.421 46.8623C135.816 46.664 136.41 46.5097 136.739 46.5097C137.267 46.5097 137.42 46.6419 137.64 47.2369C137.794 47.6336 137.904 48.1624 137.904 48.4048C137.904 48.6913 138.299 49.0659 139.069 49.5287C142.87 51.7984 148.605 56.5582 152.429 60.5688C154.253 62.486 154.604 62.9708 154.604 63.5657C154.604 63.9624 154.495 64.3811 154.341 64.5353C153.769 65.1083 151.374 64.6675 150.451 63.8302C150.056 63.4556 150.034 63.4556 149.88 63.9404C149.792 64.2048 149.814 64.4692 149.902 64.5574C150.232 64.7777 150.275 65.2185 150.341 69.3172C150.385 71.4988 150.539 74.6279 150.671 76.2806C150.957 79.6742 150.847 80.732 150.144 81.2167C149.88 81.393 149.616 81.5253 149.55 81.5253C149.484 81.5032 148.979 81.393 148.386 81.2829ZM125.532 77.2062C125.488 76.8536 125.444 77.14 125.444 77.8011C125.444 78.4622 125.488 78.7487 125.532 78.4181C125.576 78.0656 125.576 77.5367 125.532 77.2062ZM142.453 74.7822C142.387 74.5618 142.343 74.7381 142.343 75.1568C142.343 75.5755 142.387 75.7518 142.453 75.5534C142.497 75.3331 142.497 74.9805 142.453 74.7822ZM125.312 69.7138C125.291 68.7663 125.247 69.4935 125.247 71.3004C125.247 73.1295 125.291 73.9007 125.312 73.0193C125.356 72.1378 125.356 70.6614 125.312 69.7138ZM125.532 66.188C125.466 65.9677 125.422 66.144 125.422 66.5627C125.422 66.9813 125.466 67.1576 125.532 66.9593C125.576 66.739 125.576 66.3864 125.532 66.188ZM60.0263 80.4234C59.5648 80.3133 58.51 79.8725 57.675 79.4318C54.7963 77.9113 52.6428 74.8483 51.5221 70.6394C50.8189 68.0832 50.8189 62.6182 51.5221 60.062C52.511 56.3819 54.3129 53.6274 56.774 51.9306C58.7078 50.6084 60.5536 50.0135 63.2345 49.8812C66.7944 49.6829 69.4753 50.4542 71.409 52.2391L72.4199 53.1646L72.4638 45.496L72.5297 37.8054H78.6826L78.8144 58.1889C78.9023 69.4053 78.9902 78.8148 79.0342 79.1233L79.1221 79.6742L75.8918 79.7403L72.6396 79.8064V79.0792C72.6396 78.6826 72.5737 77.9995 72.5078 77.5808L72.3759 76.8095L71.3211 77.8452C69.2775 79.8285 66.7724 80.6658 63.0807 80.6438C61.8721 80.6218 60.5097 80.5336 60.0263 80.4234ZM67.8052 75.3551C70.9476 73.9889 72.6396 69.8461 72.332 64.359C72.0024 58.1228 69.3874 54.6631 65.0364 54.6631C60.1361 54.6631 57.675 58.1228 57.653 65.0201C57.653 70.0885 59.0374 73.46 61.7622 75.0686C63.5422 76.1043 65.8275 76.2145 67.8052 75.3551ZM93.0759 80.3133C89.4721 79.542 86.088 77.0299 84.4619 73.9448C82.9237 70.9919 82.638 69.6037 82.638 65.2405C82.638 61.8249 82.7039 61.2079 83.1434 59.7314C84.4179 55.6768 86.5495 52.9884 89.8017 51.3797C92.087 50.2559 94.0647 49.8151 96.9654 49.8151C104.173 49.8151 109.029 53.2969 110.919 59.8416C111.359 61.3621 111.425 62.1113 111.425 65.2405C111.425 68.3696 111.359 69.1189 110.919 70.6394C109.425 75.8179 105.821 79.2996 100.877 80.3353C98.9651 80.732 94.9657 80.732 93.0759 80.3133ZM100.547 74.8703C102.986 73.6583 104.239 71.4547 104.744 67.4441C105.316 63.0369 104.173 58.4533 102.063 56.5362C100.547 55.1699 99.4485 54.7953 97.0313 54.7733C95.1854 54.7733 94.7899 54.8394 93.6912 55.3903C91.3619 56.5362 89.9995 58.6737 89.4062 62.1113C88.8348 65.3507 89.2963 69.6037 90.4609 71.8954C92.2628 75.4433 96.7237 76.7654 100.547 74.8703ZM24.2298 79.6301C24.1419 79.564 24.076 74.055 24.076 67.4V55.3242H20.5381L20.604 52.9663L20.6699 50.5864L22.3839 50.5203L24.076 50.4542V48.537C24.076 46.1571 24.5374 43.9755 25.3066 42.5211C26.5371 40.2735 29.196 38.4665 32.0967 37.9376C34.0085 37.585 37.5903 37.6291 37.8979 38.0037C38.0737 38.202 38.1397 39.1937 38.0957 40.9125L38.0298 43.5348L35.9202 43.667C31.9648 43.9315 30.6683 45.2316 30.6683 48.9998V50.4762H34.1623C36.8871 50.4762 37.7002 50.5423 37.8979 50.7847C38.0737 50.9831 38.1397 51.8204 38.0957 53.1426L38.0298 55.214L34.36 55.2801L30.6683 55.3242V79.7844H27.526C25.79 79.7844 24.2957 79.7183 24.2298 79.6301ZM40.8205 65.1964L40.8865 50.5864L43.5234 50.5203C44.9737 50.4983 46.3801 50.5203 46.6658 50.5864L47.1492 50.6966V79.7844H40.7766L40.8205 65.1964ZM153.725 78.9029C153.725 78.2639 153.638 78.0215 153.396 78.0215C153.22 78.0215 153.066 77.9334 153.066 77.8011C153.066 77.691 153.506 77.5808 154.055 77.5808C154.604 77.5808 155.044 77.691 155.044 77.8011C155.044 77.9334 154.89 78.0215 154.714 78.0215C154.473 78.0215 154.385 78.2639 154.385 78.9029C154.385 79.542 154.297 79.7844 154.055 79.7844C153.813 79.7844 153.725 79.542 153.725 78.9029ZM155.264 78.6826C155.264 77.5147 155.659 77.1841 156.143 77.9774C156.362 78.33 156.362 78.33 156.582 77.9774C157.066 77.1841 157.461 77.5147 157.461 78.6826C157.461 79.52 157.373 79.7844 157.132 79.7844C156.934 79.7844 156.802 79.5861 156.802 79.2996C156.802 78.8809 156.758 78.8589 156.582 79.1233C156.384 79.4098 156.318 79.3877 156.033 79.0352C155.725 78.6165 155.703 78.6165 155.703 79.1894C155.703 79.52 155.615 79.7844 155.483 79.7844C155.374 79.7844 155.264 79.2996 155.264 78.6826ZM42.5346 44.5044C41.1941 43.9535 40.3371 42.6313 40.3371 41.1108C40.3371 38.8852 41.7215 37.4749 43.875 37.4749C45.2374 37.4749 46.1823 37.9597 47.0174 39.0835C47.6986 40.009 47.6766 42.1686 46.9514 43.1822C46.0285 44.4603 43.9849 45.0773 42.5346 44.5044Z" fill="black" style="fill:black;fill-opacity:1;"/>
<path d="M144.563 79.7183C142.431 79.4539 142.607 79.9166 142.409 74.2753C142.256 70.0885 141.992 68.8324 140.959 67.3119C140.234 66.2542 138.849 64.954 137.861 64.4472C135.795 63.3454 131.708 64.7337 129.972 67.0915C128.741 68.7663 128.39 70.5733 128.368 74.9585L128.346 78.8589L127.423 78.9911C126.895 79.0572 126.258 79.1674 125.972 79.2335L125.467 79.3657L125.445 72.5786L125.423 65.8134L124.83 65.3066C124.522 65.0201 124.017 64.7998 123.709 64.7998C123.335 64.7998 123.182 64.6896 123.182 64.3811C123.182 64.0505 126.895 59.6433 129.225 57.1752C129.334 57.043 130.279 55.9632 131.312 54.7512C133.488 52.2171 135.377 50.2559 135.685 50.2559C135.795 50.2559 135.949 50.4321 136.015 50.6525C136.103 50.8508 136.674 51.4017 137.311 51.8645C142.497 55.6327 145.42 58.1448 149.068 62.0012C150.144 63.147 150.188 63.2793 149.947 63.8081C149.727 64.2929 149.749 64.4252 150.012 64.6235C150.254 64.7998 150.232 64.8218 149.881 64.7337C149.639 64.6675 149.134 64.4913 148.76 64.337C147.837 63.9624 146.76 64.4031 146.541 65.1964C146.387 65.8355 146.848 78.7487 147.046 79.52C147.2 80.0709 147.376 80.0488 144.563 79.7183Z" fill="#FFE600" style="fill:#FFE600;fill:color(display-p3 1.0000 0.9020 0.0000);fill-opacity:1;"/>
</svg>
