<svg width="85" height="84" viewBox="0 0 85 84" fill="none" xmlns="http://www.w3.org/2000/svg">
<g clip-path="url(#clip0_552_909)">
<path fillRule="evenodd" clipRule="evenodd" d="M75.3768 42.0019C75.3768 59.9107 60.6595 74.4261 42.4994 74.4261C24.3375 74.4261 9.62402 59.9107 9.62402 42.0019C9.62402 24.09 24.3375 9.57397 42.4994 9.57397C60.6595 9.57397 75.3768 24.09 75.3768 42.0019Z" fill="white" style="fill:white;fill-opacity:1;"/>
<path fillRule="evenodd" clipRule="evenodd" d="M75.3768 42.0019C75.3768 59.9107 60.6595 74.4261 42.4994 74.4261C24.3375 74.4261 9.62402 59.9107 9.62402 42.0019C9.62402 24.09 24.3375 9.57397 42.4994 9.57397C60.6595 9.57397 75.3768 24.09 75.3768 42.0019Z" stroke="white" style="stroke:white;stroke-opacity:1;" stroke-width="19"/>
<path fillRule="evenodd" clipRule="evenodd" d="M75.3768 42.0019C75.3768 59.9107 60.6595 74.4261 42.4994 74.4261C24.3375 74.4261 9.62402 59.9107 9.62402 42.0019C9.62402 24.09 24.3375 9.57397 42.4994 9.57397C60.6595 9.57397 75.3768 24.09 75.3768 42.0019Z" fill="#00A84F" style="fill:#00A84F;fill:color(display-p3 0.0000 0.6588 0.3098);fill-opacity:1;"/>
<path fillRule="evenodd" clipRule="evenodd" d="M42.3483 10.7507C25.114 10.7507 11.1484 24.6647 11.1484 41.8348C11.1484 59.0037 25.114 72.9198 42.3483 72.9198C59.5858 72.9198 73.5519 59.0037 73.5519 41.8348C73.5519 24.6647 59.5858 10.7507 42.3483 10.7507Z" fill="#00A84F" style="fill:#00A84F;fill:color(display-p3 0.0000 0.6588 0.3098);fill-opacity:1;"/>
<path fillRule="evenodd" clipRule="evenodd" d="M42.3483 21.2725C30.9149 21.2725 21.6436 30.478 21.6436 41.8347C21.6436 53.1902 30.9148 62.4007 42.3483 62.4007C53.7869 62.4007 63.0493 53.1902 63.0493 41.8347C63.0493 30.478 53.7869 21.2725 42.3483 21.2725Z" fill="white" style="fill:white;fill-opacity:1;"/>
<path fillRule="evenodd" clipRule="evenodd" d="M61.5749 41.8349C61.5749 52.409 52.9641 60.9803 42.3476 60.9803C31.7333 60.9803 23.126 52.409 23.126 41.8349C23.126 31.2577 31.7333 22.6855 42.3476 22.6855C52.9641 22.6855 61.5749 31.2577 61.5749 41.8349Z" fill="#D3313A" style="fill:#D3313A;fill:color(display-p3 0.8275 0.1922 0.2275);fill-opacity:1;"/>
<path fillRule="evenodd" clipRule="evenodd" d="M42.3483 30.9607C36.1182 30.9607 31.0771 35.8279 31.0771 41.8354C31.0771 47.8358 36.1182 52.7099 42.3483 52.7099C48.5753 52.7099 53.6227 47.8358 53.6227 41.8354C53.6227 35.8279 48.5753 30.9607 42.3483 30.9607Z" fill="white" style="fill:white;fill-opacity:1;"/>
<path fillRule="evenodd" clipRule="evenodd" d="M45.6097 40.3991C45.6218 40.4473 45.6683 40.4473 45.6683 40.4473C45.6683 40.4473 46.5406 39.9408 46.8737 39.7606C47.3909 39.4956 48.0202 39.4237 48.2991 39.393C48.5699 39.3617 48.9767 39.4237 49.0816 39.4081C49.189 39.3999 49.2576 39.2415 49.2436 39.1469C49.2405 39.0474 49.2148 38.8978 48.9609 38.8157C48.6976 38.7381 47.7097 38.924 47.3922 39.0443C47.0823 39.1744 46.7403 39.3655 46.5632 39.4719C46.3852 39.5645 45.6996 40.061 45.6462 40.1381C45.587 40.2051 45.6061 40.3409 45.6097 40.3991ZM49.301 40.0228C49.3437 40.1861 49.2149 40.3747 48.9905 40.5637C49.0539 40.461 49.094 40.3546 49.0539 40.2752C49.0073 40.066 48.6836 39.9646 48.2644 39.9832C48.492 40.0228 48.658 40.1537 48.7126 40.3547C48.7957 40.6414 48.5594 40.9626 48.1973 41.0654C47.8272 41.1686 47.4651 41.0107 47.3784 40.7135C47.318 40.468 47.4651 40.2051 47.7254 40.0661C47.7165 40.0691 47.7097 40.0749 47.6889 40.0749C47.0202 40.2583 46.5425 40.6564 46.6198 40.9451C46.6631 41.091 46.853 41.1906 47.1288 41.22C46.5632 41.2681 46.12 41.1512 46.0598 40.9025C45.9561 40.5557 46.6115 40.0691 47.5028 39.8288C48.3991 39.5784 49.206 39.664 49.301 40.0228ZM42.4222 42.087C42.4894 42.1114 46.494 43.487 50.8388 44.9859C49.6749 48.0293 46.9027 50.3427 43.4308 50.7427C38.4728 51.3113 33.9735 47.7544 33.392 42.8258C32.8216 37.8816 36.3831 33.4024 41.345 32.827C46.3063 32.2516 50.8005 35.8017 51.3819 40.7429C51.3899 40.8386 51.3987 40.9312 51.4089 41.0307C46.7838 41.4709 42.5378 41.8791 42.4654 41.883C42.3052 41.8998 42.2844 42.0408 42.4222 42.087ZM48.5594 40.3546C48.6027 40.5074 48.5246 40.6788 48.3751 40.7134C48.2319 40.7528 48.0804 40.6582 48.042 40.4987C47.9956 40.3321 48.0767 40.1773 48.225 40.138C48.3646 40.0948 48.5197 40.195 48.5594 40.3546Z" fill="#00A84F" style="fill:#00A84F;fill:color(display-p3 0.0000 0.6588 0.3098);fill-opacity:1;"/>
<path fillRule="evenodd" clipRule="evenodd" d="M62.32 36.2882C62.3033 36.9494 62.4182 37.1246 62.534 37.4734C62.6475 37.8116 62.6652 37.7858 62.6612 38.0775C62.6474 38.447 62.5237 38.7013 62.4751 38.9108C62.4251 39.117 62.3971 39.2973 62.5218 39.4087C62.6495 39.5547 62.8163 39.5978 62.9598 39.1989C63.0618 38.9108 63.1428 38.4833 63.1095 38.0695C63.0461 37.1553 62.7217 37.0695 62.7079 36.5029C62.6941 36.0102 62.8046 35.8969 62.9146 35.3297C62.9808 34.9383 62.9205 33.6898 62.8287 33.4407C62.7393 33.1916 62.6893 33.3857 62.6893 33.4495C62.6907 33.5235 62.7079 34.3768 62.596 35.0091C62.4895 35.6822 62.3372 35.7749 62.32 36.2882Z" fill="white" style="fill:white;fill-opacity:1;"/>
<path fillRule="evenodd" clipRule="evenodd" d="M57.7567 34.6736C57.791 35.7742 57.9811 36.0559 58.1995 36.6144C58.4244 37.1653 58.4411 37.1241 58.4598 37.6019C58.4838 38.2248 58.2997 38.6493 58.2423 38.9942C58.1829 39.3618 58.1701 39.6542 58.363 39.8376C58.5923 40.0455 58.8603 40.1024 59.0445 39.4343C59.179 38.9636 59.2649 38.2323 59.1819 37.5555C59.0047 36.0471 58.472 35.9308 58.3876 34.9911C58.3253 34.1839 58.5015 33.9761 58.61 33.0369C58.691 32.3757 58.4754 30.3198 58.3046 29.9059C58.1362 29.5076 58.067 29.8251 58.0768 29.9403C58.0876 30.0605 58.1995 31.4704 58.0807 32.5354C57.9565 33.6517 57.7322 33.8232 57.7567 34.6736Z" fill="white" style="fill:white;fill-opacity:1;"/>
<path fillRule="evenodd" clipRule="evenodd" d="M60.148 35.8756C60.122 36.6452 60.2457 36.8492 60.3773 37.2443C60.5049 37.6412 60.5186 37.6137 60.5059 37.9606C60.4926 38.3863 60.3498 38.6769 60.2923 38.9103C60.2388 39.1577 60.2172 39.3686 60.3497 39.5083C60.4926 39.6641 60.6737 39.7142 60.8323 39.2534C60.9531 38.9328 61.041 38.4294 61.0154 37.9486C60.9551 36.8956 60.5805 36.7892 60.5756 36.1249C60.5672 35.5583 60.6958 35.4255 60.8157 34.7692C60.8976 34.3162 60.8422 32.8703 60.7391 32.5819C60.6423 32.2982 60.5756 32.5098 60.5756 32.5918C60.5805 32.6707 60.5981 33.6674 60.472 34.3987C60.3325 35.1801 60.1721 35.2765 60.148 35.8756Z" fill="white" style="fill:white;fill-opacity:1;"/>
<path fillRule="evenodd" clipRule="evenodd" d="M54.7604 32.9342C54.7913 34.3836 55.0463 34.7548 55.338 35.4812C55.6189 36.2161 55.6535 36.1542 55.6623 36.7934C55.6881 37.6122 55.4467 38.1552 55.3676 38.6184C55.2847 39.0962 55.274 39.4913 55.5171 39.7316C55.8276 40.0233 56.162 40.0854 56.4209 39.2027C56.596 38.584 56.7168 37.636 56.6137 36.7382C56.3865 34.7441 55.6775 34.5964 55.5914 33.3548C55.5072 32.2817 55.7396 32.0206 55.895 30.7872C56.0018 29.9201 55.7346 27.2067 55.5171 26.6775C55.2947 26.1474 55.1998 26.5572 55.2136 26.7117C55.2224 26.8736 55.3676 28.7279 55.1998 30.126C55.0245 31.5941 54.7347 31.8128 54.7604 32.9342Z" fill="white" style="fill:white;fill-opacity:1;"/>
<path fillRule="evenodd" clipRule="evenodd" d="M66.8588 38.9949C66.5569 38.993 66.3345 39.1475 66.1833 39.2973C65.4017 39.3881 42.4338 41.8097 42.2616 41.8355C42.0887 41.8591 42.051 42.0107 42.2171 42.059C42.3684 42.117 63.2396 49.0742 64.7301 49.5638C64.8588 50.1423 65.0949 50.4585 65.7468 50.4854C66.3207 50.5099 66.5137 50.3997 66.8102 48.9747C66.9913 48.0468 66.4361 47.2368 66.4739 46.6545C66.5136 46.0722 66.9535 45.6653 67.1292 44.7806C67.3016 43.8997 66.9171 42.9261 66.9309 42.6336C66.9535 42.3331 67.2275 42.067 67.4361 41.3151C67.655 40.5557 67.6119 39.8382 67.6001 39.7524C67.5913 39.6647 67.6865 39.0105 66.8588 38.9949Z" fill="white" style="fill:white;fill-opacity:1;"/>
<path fillRule="evenodd" clipRule="evenodd" d="M51.7693 42.757C51.8672 43.492 51.3518 44.165 50.6367 44.2477C49.9075 44.3453 49.2439 43.8271 49.1502 43.0881C49.0542 42.3501 49.5675 41.6752 50.2917 41.5944C51.0176 41.4998 51.678 42.0183 51.7693 42.757Z" fill="#D3313A" style="fill:#D3313A;fill:color(display-p3 0.8275 0.1922 0.2275);fill-opacity:1;"/>
<path fillRule="evenodd" clipRule="evenodd" d="M55.7152 43.4252C55.8084 44.164 55.3037 44.832 54.5795 44.9209C53.8501 45.0135 53.1951 44.4901 53.0934 43.7532C53.0073 43.0163 53.5225 42.3502 54.2365 42.2505C54.9587 42.1647 55.6222 42.6851 55.7152 43.4252Z" fill="#D3313A" style="fill:#D3313A;fill:color(display-p3 0.8275 0.1922 0.2275);fill-opacity:1;"/>
<path fillRule="evenodd" clipRule="evenodd" d="M59.265 42.0415C59.3611 42.7733 58.8496 43.4463 58.1206 43.5302C57.3945 43.6248 56.7312 43.0976 56.6389 42.3675C56.5501 41.6294 57.0616 40.9544 57.7824 40.865C58.5084 40.7704 59.1736 41.2975 59.265 42.0415Z" fill="#D3313A" style="fill:#D3313A;fill:color(display-p3 0.8275 0.1922 0.2275);fill-opacity:1;"/>
<path fillRule="evenodd" clipRule="evenodd" d="M65.1728 42.1645C65.2676 42.8958 64.7556 43.5697 64.0264 43.6591C63.3024 43.7531 62.6435 43.2378 62.5487 42.4958C62.4574 41.7664 62.9641 41.0878 63.6867 41.0021C64.4143 40.9075 65.0781 41.4258 65.1728 42.1645Z" fill="#D3313A" style="fill:#D3313A;fill:color(display-p3 0.8275 0.1922 0.2275);fill-opacity:1;"/>
<path fillRule="evenodd" clipRule="evenodd" d="M61.4969 45.0415C61.5901 45.7805 61.0747 46.4497 60.3491 46.5424C59.625 46.6438 58.9647 46.1066 58.8684 45.3766C58.7751 44.6346 59.2857 43.9684 60.0162 43.8752C60.7384 43.7895 61.4021 44.3085 61.4969 45.0415Z" fill="#D3313A" style="fill:#D3313A;fill:color(display-p3 0.8275 0.1922 0.2275);fill-opacity:1;"/>
<path fillRule="evenodd" clipRule="evenodd" d="M65.5587 46.5956C65.6549 47.3344 65.1365 48.0036 64.4143 48.0951C63.6862 48.1839 63.0314 47.6687 62.9317 46.9217C62.8438 46.1884 63.3554 45.5167 64.0829 45.4329C64.8022 45.3353 65.4659 45.8566 65.5587 46.5956Z" fill="#D3313A" style="fill:#D3313A;fill:color(display-p3 0.8275 0.1922 0.2275);fill-opacity:1;"/>
<path fillRule="evenodd" clipRule="evenodd" d="M28.6406 64.4825L29.1404 64.706C29.535 64.8757 29.8423 64.929 30.0611 64.8518C30.2767 64.788 30.4268 64.6272 30.5178 64.4055C30.6039 64.187 30.6039 63.9673 30.5299 63.7512C30.4557 63.5376 30.2212 63.3454 29.8423 63.1758L29.256 62.9217L28.6406 64.4825ZM27.7663 60.5837L31.1678 62.0901C31.9005 62.4184 32.3801 62.8509 32.607 63.39C32.8295 63.9247 32.8018 64.5395 32.5297 65.2194C32.2488 65.932 31.8282 66.3909 31.2727 66.6119C30.716 66.8316 30.0214 66.7547 29.2076 66.3909L28.0889 65.8994L27.065 68.4895L25.0049 67.5893L27.7663 60.5837Z" fill="white" style="fill:white;fill-opacity:1;"/>
<path fillRule="evenodd" clipRule="evenodd" d="M29.1678 64.6454C29.4437 64.7568 29.6643 64.8225 29.8422 64.8169C29.9164 64.8169 29.983 64.8156 30.0371 64.7881C30.233 64.7212 30.3713 64.5852 30.4557 64.3812C30.4971 64.2709 30.5178 64.1645 30.5178 64.0581C30.5178 63.9674 30.5021 63.8709 30.4662 63.7763C30.4003 63.5891 30.1935 63.3999 29.8107 63.2372L29.2903 63.0106L28.7287 64.4463L29.1678 64.6454ZM29.1214 64.7568L28.6078 64.539L28.5556 64.5165L29.2213 62.8336L29.866 63.1204C30.254 63.2867 30.5021 63.4866 30.5901 63.7319C30.6334 63.8385 30.6504 63.9468 30.6504 64.0581C30.6504 64.1871 30.6247 64.3072 30.5794 64.4274C30.4833 64.663 30.3192 64.8327 30.0868 64.9134C30.0125 64.934 29.9225 64.9478 29.8422 64.9478C29.6416 64.9478 29.3934 64.889 29.1214 64.7568ZM25.0909 67.5561L27.806 60.6784L31.1382 62.1553C31.8621 62.4778 32.3277 62.8985 32.5435 63.4139C32.6382 63.6474 32.6899 63.8947 32.6899 64.1527C32.6899 64.4788 32.6126 64.8258 32.4655 65.1914C32.1902 65.887 31.788 66.3371 31.2506 66.5518C31.0469 66.6271 30.8283 66.6634 30.5869 66.6634C30.1935 66.6634 29.7366 66.5518 29.2243 66.3371L28.0473 65.81L27.0216 68.4032L25.0909 67.5561ZM24.9268 67.6218L27.7042 60.5665L27.7337 60.498L31.1904 62.0264C31.94 62.3613 32.4348 62.8058 32.6672 63.3576C32.771 63.6067 32.8206 63.8778 32.8206 64.1527C32.8206 64.4958 32.7414 64.8563 32.5968 65.2445C32.3109 65.959 31.8759 66.4416 31.3021 66.672C31.0797 66.7541 30.8416 66.7973 30.5869 66.7973C30.164 66.7973 29.6901 66.6771 29.1746 66.4485L28.1215 65.9903L27.0906 68.5849L24.9268 67.6218Z" fill="white" style="fill:white;fill-opacity:1;"/>
<path fillRule="evenodd" clipRule="evenodd" d="M34.4871 63.2371L36.6591 63.7349L35.1299 71.1511L32.9629 70.6457L34.4871 63.2371Z" fill="white" style="fill:white;fill-opacity:1;"/>
<path fillRule="evenodd" clipRule="evenodd" d="M33.044 70.5926L35.0733 71.0647L36.578 63.7831L34.5366 63.3124L33.044 70.5926ZM32.8887 70.6902L34.4267 63.2197L34.4386 63.1565L36.7332 63.6836L35.1852 71.223L32.8887 70.6902Z" fill="white" style="fill:white;fill-opacity:1;"/>
<path fillRule="evenodd" clipRule="evenodd" d="M37.4386 64.0237L43.6931 64.3192L43.6291 65.8386L39.4213 70.0774L43.5776 70.2833L43.5135 71.9011L36.7246 71.58L36.7868 70.0084L40.9555 65.813L37.3643 65.6414L37.4386 64.0237Z" fill="white" style="fill:white;fill-opacity:1;"/>
<path fillRule="evenodd" clipRule="evenodd" d="M37.4379 65.5782L41.1113 65.7536L36.857 70.0348L36.793 71.5154L43.4474 71.8417L43.5128 70.3403L39.2617 70.138L43.5592 65.81L43.6285 64.393L37.5001 64.0875L37.4379 65.5782ZM36.6553 71.6358L36.7239 69.9785L40.8046 65.8737L37.2933 65.7035L37.3637 64.0155L37.3706 63.9553L43.7648 64.2678L43.6925 65.8738L39.5702 70.0211L43.6541 70.2189L43.5769 71.9757L36.6553 71.6358Z" fill="white" style="fill:white;fill-opacity:1;"/>
<path fillRule="evenodd" clipRule="evenodd" d="M44.1162 64.2766L50.2772 63.0708L50.5411 64.5684L47.3466 69.7017L51.4411 68.9035L51.7221 70.5075L45.0369 71.8123L44.7679 70.2652L47.924 65.1851L44.3883 65.8737L44.1162 64.2766Z" fill="white" style="fill:white;fill-opacity:1;"/>
<path fillRule="evenodd" clipRule="evenodd" d="M44.8443 70.2701L45.0976 71.7371L51.6452 70.4592L51.3899 68.9785L47.2063 69.8011L50.4711 64.5513L50.2266 63.157L44.1964 64.3346L44.4514 65.7878L48.0627 65.0835L44.8443 70.2701ZM44.6959 70.2531L47.7924 65.2795L44.339 65.9476L44.0549 64.2903L44.043 64.2301L50.3298 62.9885L50.6056 64.5771L47.482 69.6089L51.5024 68.8238L51.7934 70.5538L44.9769 71.8917L44.6959 70.2531Z" fill="white" style="fill:white;fill-opacity:1;"/>
<path fillRule="evenodd" clipRule="evenodd" d="M56.002 65.6039L54.2485 63.4345L54.5539 66.2601L56.002 65.6039ZM57.0416 66.9094L54.735 67.9687L54.8864 69.2623L52.8125 70.2182L52.4297 62.1259L54.6401 61.1111L59.9636 66.935L57.8344 67.9055L57.0416 66.9094Z" fill="white" style="fill:white;fill-opacity:1;"/>
<path fillRule="evenodd" clipRule="evenodd" d="M54.6195 66.1655L55.8954 65.5782L54.3436 63.6479L54.6195 66.1655ZM54.1608 63.2165L56.0505 65.5606L56.1051 65.6227L54.4989 66.3615L54.1608 63.2165ZM52.5027 62.1792L54.6295 61.1867L59.8548 66.9094L57.8557 67.8258L57.0535 66.8267L57.0122 66.8492L54.6572 67.9311L54.8124 69.2208L52.8697 70.1242L52.5027 62.1792ZM52.3614 62.0833L54.6572 61.0303L60.0703 66.9469L57.8208 67.9861L57.0122 66.9901L54.8041 68.0081L54.9589 69.2997L52.7491 70.3216L52.3614 62.0833Z" fill="white" style="fill:white;fill-opacity:1;"/>
<path fillRule="evenodd" clipRule="evenodd" d="M18.8878 31.8198C18.4611 32.9129 18.1147 34.0368 17.8482 35.1795C19.2957 35.5638 20.0398 35.7629 20.8882 35.9652C20.6953 36.8461 20.6185 37.3039 20.5067 38.2568C17.8098 37.9612 15.1394 37.4647 12.4414 37.1786C12.8775 34.6574 13.4733 32.2086 14.4425 29.832C14.8428 30.0072 15.1063 30.1244 15.685 30.3824C15.1665 31.6565 14.7801 32.9493 14.4111 34.2722C15.0061 34.4251 15.345 34.5147 16.0325 34.6967C16.3355 33.4595 16.7233 32.2424 17.1971 31.0599C17.8645 31.3596 18.2178 31.5187 18.8878 31.8198Z" fill="white" style="fill:white;fill-opacity:1;"/>
<path fillRule="evenodd" clipRule="evenodd" d="M19.8787 24.8848C19.5745 24.6226 19.2917 24.5547 19.0165 24.6798C18.7419 24.8041 18.4257 25.1239 18.0831 25.6487C17.9581 25.8404 17.8965 25.9372 17.7746 26.1324C18.3898 26.5681 18.7512 26.8244 19.4708 27.3345C19.5864 27.1477 19.6449 27.0552 19.7643 26.8718C20.0942 26.3647 20.2835 25.9817 20.3061 25.6966C20.328 25.4183 20.1798 25.144 19.8787 24.8848ZM25.9555 26.5442C25.3516 27.1584 25.0669 27.4793 24.5358 28.1503C24.1103 28.042 23.8577 27.9567 23.3071 27.7713C22.808 27.6069 22.3749 27.491 22.0741 27.4656C21.7749 27.4402 21.5309 27.4744 21.3802 27.5678C21.2312 27.6607 21.074 27.8272 20.9345 28.0482C20.878 28.1378 20.8498 28.1829 20.7944 28.2737C21.9477 29.0919 22.5314 29.5071 23.2392 30.0129C22.8187 30.703 22.6257 31.0615 22.277 31.811C19.9435 30.532 17.6117 29.2497 15.2744 27.9776C16.006 26.4821 16.8651 25.0496 17.8424 23.7023C18.3062 23.063 18.7744 22.618 19.2408 22.3896C19.7103 22.1597 20.1427 22.1055 20.5418 22.2179C20.9371 22.3295 21.2707 22.5417 21.5271 22.8156C21.8301 23.1379 22.0476 23.4988 22.1601 23.8436C22.2714 24.1835 22.336 24.4858 22.3305 24.7112C22.3247 24.9489 22.2479 25.4375 22.2593 25.4473C22.2957 25.4805 22.8237 25.3676 23.0921 25.4135C23.3585 25.4595 23.8431 25.637 24.4503 25.9178C25.1284 26.2234 25.4401 26.3666 25.9555 26.5442Z" fill="white" style="fill:white;fill-opacity:1;"/>
<path fillRule="evenodd" clipRule="evenodd" d="M30.7603 22.7778C29.2966 23.7286 27.8912 24.7131 26.6104 25.9049C24.8965 23.8024 23.2216 21.6696 21.502 19.5715C23.1995 18.0784 24.9462 16.8058 26.8925 15.6526C27.1132 16.0302 27.2515 16.2869 27.5531 16.8542C26.4545 17.4832 25.398 18.1855 24.3937 18.9548C24.7243 19.4448 24.9091 19.7217 25.2842 20.2841C26.3829 19.4395 26.9598 19.0531 28.1534 18.3498C28.4971 19.0086 28.6787 19.3593 29.025 20.0248C27.8982 20.6964 27.3564 21.0617 26.3281 21.8535C26.7688 22.5152 26.9882 22.8448 27.3727 23.4165C28.4035 22.6194 28.9516 22.2511 30.1005 21.5649C30.4021 22.1382 30.5404 22.3964 30.7603 22.7778Z" fill="white" style="fill:white;fill-opacity:1;"/>
<path fillRule="evenodd" clipRule="evenodd" d="M35.7156 18.2868C35.823 18.8028 35.8017 19.239 35.6673 19.6038C35.5327 19.9706 35.3135 20.2558 35.0116 20.4993C34.7132 20.74 34.3525 20.9375 33.9471 21.1175C33.8334 21.1674 33.6924 21.2295 33.5254 21.295C33.3607 21.3601 33.1388 21.4266 32.7838 21.541C32.4274 21.6565 32.0483 21.7484 31.6385 21.811C31.3545 21.2589 31.1768 20.8862 30.8078 20.1018C31.2659 20.1678 31.6931 20.1912 32.0967 20.1834C32.4927 20.1746 32.8352 20.0944 33.1733 19.9448C33.489 19.8049 33.6781 19.6562 33.7271 19.4934C33.7774 19.3281 33.7886 19.1828 33.7503 19.0635C33.6811 18.8459 33.529 18.6933 33.3065 18.6067C33.0854 18.5202 32.7711 18.4614 32.3776 18.4345C31.9384 18.4052 31.5091 18.3387 31.1044 18.2502C30.7034 18.1617 30.3288 17.989 29.9818 17.7391C29.6349 17.4887 29.3453 17.1356 29.1411 16.7072C28.941 16.2885 28.8731 15.8875 28.9399 15.5099C29.0059 15.1348 29.2358 14.7876 29.5984 14.477C29.9693 14.1606 30.5349 13.871 31.2319 13.6148C31.7202 13.4343 32.1835 13.3032 32.6108 13.2186C33.0369 13.134 33.389 13.0974 33.673 13.0949C33.9535 13.092 34.1463 13.0983 34.2586 13.1208C34.3894 13.6779 34.4725 14.0495 34.6465 14.834C34.2694 14.6761 33.8463 14.5665 33.3951 14.5225C32.9477 14.4789 32.4758 14.5469 32.0031 14.72C31.7009 14.8311 31.4933 14.969 31.3998 15.1265C31.3037 15.2864 31.291 15.4517 31.3545 15.6146C31.4135 15.7666 31.5335 15.8752 31.7064 15.9408C31.8774 16.0058 32.1728 16.063 32.5525 16.1183C33.2248 16.2151 33.7793 16.3349 34.1871 16.4841C34.5912 16.6333 34.9293 16.8592 35.182 17.1385C35.4396 17.4221 35.6187 17.8192 35.7156 18.2868Z" fill="white" style="fill:white;fill-opacity:1;"/>
<path fillRule="evenodd" clipRule="evenodd" d="M44.4822 19.5915C43.6625 19.5127 43.2502 19.4892 42.4308 19.479C42.4471 18.6867 42.462 17.9643 42.4918 16.5407C41.1549 16.5265 40.4862 16.5617 39.1665 16.7197C39.2669 18.1301 39.3178 18.8462 39.3725 19.634C38.5762 19.7265 38.1835 19.7905 37.4185 19.9519C37.034 17.3765 36.6705 14.7981 36.2822 12.2227C37.3011 12.0109 37.8071 11.9268 38.8144 11.803C38.8666 12.5411 38.9131 13.1901 39.0073 14.4998C40.1783 14.3585 41.3586 14.2914 42.5382 14.3008C42.5658 12.9793 42.5796 12.3244 42.5942 11.5806C43.5916 11.5864 44.0886 11.6099 45.086 11.6989C44.8926 14.3306 44.6787 16.9603 44.4822 19.5915Z" fill="white" style="fill:white;fill-opacity:1;"/>
<path fillRule="evenodd" clipRule="evenodd" d="M51.3329 19.098C51.1765 19.6184 50.9446 19.9852 50.6511 20.2131C50.3557 20.4425 50.0156 20.5364 49.6129 20.5393C49.2206 20.5427 48.7883 20.4659 48.3031 20.3373C48.1698 20.3021 48.0026 20.2571 47.8034 20.1955C47.6118 20.1368 47.3546 20.0365 47.031 19.906C46.7093 19.7763 46.3693 19.615 46.0166 19.4174C46.0856 18.8227 46.1342 18.4182 46.2365 17.5648C46.5666 17.8915 46.8952 18.1722 47.2119 18.4089C47.5287 18.6461 47.8756 18.8012 48.2584 18.8965C48.6111 18.9845 48.8568 18.9816 48.9862 18.8784C49.12 18.7713 49.1998 18.6569 49.2269 18.5322C49.276 18.3053 49.2199 18.0813 49.0742 17.8705C48.9271 17.6582 48.6807 17.4156 48.3603 17.1535C47.9987 16.8571 47.6764 16.5441 47.4062 16.2326C47.1371 15.9225 46.9204 15.5601 46.7683 15.1518C46.6155 14.7424 46.5603 14.2871 46.6149 13.82C46.669 13.3642 46.8256 12.997 47.0737 12.7334C47.3245 12.4673 47.6902 12.3157 48.164 12.2604C48.6337 12.2061 49.2042 12.2638 49.8591 12.4208C50.3324 12.5343 50.7649 12.6751 51.1501 12.836C51.5373 12.9979 51.8514 13.1608 52.094 13.3187C52.3272 13.4693 52.4894 13.5848 52.5673 13.665C52.4026 14.2215 52.2933 14.5971 52.0645 15.3934C51.8219 15.0368 51.5128 14.6955 51.1582 14.4005C50.8038 14.1061 50.3764 13.8978 49.9126 13.7814C49.6071 13.7041 49.3765 13.7095 49.225 13.7887C49.0684 13.8714 48.9718 14.0034 48.9409 14.1766C48.9114 14.3389 48.9567 14.4993 49.064 14.6549C49.1692 14.8065 49.3765 15.0222 49.6719 15.2951C50.1853 15.7695 50.5957 16.2038 50.8747 16.5789C51.1526 16.951 51.3329 17.3521 51.4234 17.7556C51.5164 18.1723 51.475 18.6266 51.3329 19.098Z" fill="white" style="fill:white;fill-opacity:1;"/>
<path fillRule="evenodd" clipRule="evenodd" d="M56.0544 24.106C54.7585 23.1778 53.3885 22.3283 51.96 21.6162C52.9679 19.1083 53.8096 16.5382 54.8169 14.0298C55.8616 14.423 56.4234 14.6436 57.2166 15.0177C56.2298 16.9955 55.3574 19.031 54.4404 21.042C55.5158 21.6406 56.0097 21.9448 56.9343 22.5958C56.52 23.3186 56.3297 23.6488 56.0544 24.106Z" fill="white" style="fill:white;fill-opacity:1;"/>
<path fillRule="evenodd" clipRule="evenodd" d="M58.0382 25.7415C57.5866 25.3112 57.349 25.1047 56.8369 24.6988C58.4055 22.3674 59.8773 19.9739 61.4473 17.6445C62.249 18.2612 62.6491 18.5972 63.4301 19.3167C61.5862 21.4192 59.8802 23.6376 58.0382 25.7415Z" fill="white" style="fill:white;fill-opacity:1;"/>
<path fillRule="evenodd" clipRule="evenodd" d="M62.2483 30.6715C61.9694 30.4799 61.7255 30.2858 61.5139 30.0823C61.2988 29.8757 61.1147 29.6728 60.9512 29.4682C60.7858 29.2609 60.6346 29.05 60.4902 28.8306C60.2241 28.4237 60.041 28.0506 59.9404 27.6733C59.8398 27.2968 59.827 26.9055 59.9105 26.4625C59.9944 26.014 60.1726 25.5327 60.4672 25.0265C60.7686 24.5116 61.1672 23.9697 61.6754 23.4459C62.2522 22.8502 62.8399 22.4061 63.4118 22.1836C63.9882 21.9591 64.5562 21.9283 65.1055 22.077C65.6593 22.2271 66.1914 22.5386 66.6898 22.9641C67.1959 23.3965 67.6623 23.9158 68.0776 24.51C68.7743 25.5048 69.2735 26.6346 69.5489 27.8183C68.8273 28.0581 68.3692 28.2359 67.4232 28.6109C67.493 28.1251 67.4949 27.6523 67.4468 27.2112C67.3996 26.7827 67.2121 26.3088 66.8906 25.8256C66.6083 25.4021 66.2416 25.0646 65.8252 24.8318C65.4016 24.5956 64.9445 24.4934 64.4678 24.5389C63.9901 24.5844 63.536 24.7966 63.101 25.1351C62.7078 25.4403 62.4122 25.7924 62.2081 26.1651C61.9994 26.5456 61.8963 26.9148 61.8904 27.2825C61.8841 27.6499 61.9827 27.9887 62.1918 28.311C62.3617 28.5727 62.5694 28.8025 62.8158 29.0093C63.0584 29.2139 63.291 29.3929 63.5149 29.5176C63.7402 29.6434 63.997 29.7706 64.2871 29.9094C63.3853 30.2657 62.9493 30.4348 62.2483 30.6715Z" fill="white" style="fill:white;fill-opacity:1;"/>
<path fillRule="evenodd" clipRule="evenodd" d="M64.9931 37.6724C64.1541 35.7765 63.3161 33.8794 62.3867 32.025C65.2484 31.3269 67.9809 30.1873 70.8441 29.4937C71.8117 31.7789 72.5035 34.0171 72.9673 36.4547C72.5368 36.4954 72.2482 36.5316 71.6109 36.6186C71.278 35.218 70.8966 33.8733 70.4405 32.5071C69.8185 32.6367 69.4709 32.7156 68.7679 32.8758C69.2377 34.118 69.6147 35.3764 69.9781 36.6524C69.2382 36.764 68.8445 36.8253 68.0978 36.9386C67.7119 35.7203 67.2843 34.5144 66.8081 33.3278C65.9823 33.5181 65.5714 33.6127 64.8492 33.7642C65.3795 34.9995 65.8635 36.2512 66.3432 37.5065C65.7069 37.594 65.4192 37.6311 64.9931 37.6724Z" fill="white" style="fill:white;fill-opacity:1;"/>
</g>
<defs>
<clipPath id="clip0_552_909">
<rect width="85" height="84" fill="white" style="fill:white;fill-opacity:1;"/>
</clipPath>
</defs>
</svg>
