<svg width="178" height="72" viewBox="0 0 178 72" fill="none" xmlns="http://www.w3.org/2000/svg">
<g clip-path="url(#clip0_228_10)">
<path d="M26.4137 0H27.5197C28.1982 0.577226 28.9235 1.10705 29.5524 1.73726C35.5731 7.77722 42.8184 10.9171 51.2883 11.1569C52.5267 11.1904 53.4175 11.5613 53.925 12.7269V36.7835C53.8809 36.962 53.8257 37.1377 53.8009 37.3162C53.5582 39.0172 53.4534 40.7516 53.0617 42.4192C49.7328 56.5738 41.3374 66.236 27.8727 71.4032C27.288 71.5984 26.6592 71.5984 26.0745 71.4004C19.1601 68.9381 13.3435 64.8529 8.74031 59.0751C3.0119 51.8834 0.0718484 43.6461 0.019446 34.3993C-0.0191663 27.4308 0.0111719 20.4623 0.01393 13.4965C0.01393 12.0325 0.813756 11.2824 2.26999 11.1737C4.26128 11.0231 6.27464 10.9171 8.23008 10.5379C14.5846 9.30812 19.982 6.23237 24.53 1.59225C25.1037 1.00666 25.7849 0.529821 26.4137 0ZM4.15648 15.3509V15.8668C4.15648 22.0183 4.10959 28.1698 4.18406 34.3213C4.1813 36.4155 4.37712 38.5069 4.766 40.5648C7.36958 53.2721 14.6177 62.109 26.513 67.0698C26.8247 67.1786 27.1639 67.1758 27.4728 67.0586C41.0423 61.7074 49.7438 48.8021 49.7797 33.9922C49.7935 28.0275 49.7824 22.0629 49.7824 16.0982V15.3565C40.9457 14.7011 33.3419 11.2824 26.9736 5.1058C20.5612 11.2936 12.9932 14.7123 4.15648 15.3509Z" fill="#D90306" style="fill:#D90306;fill:color(display-p3 0.8510 0.0118 0.0235);fill-opacity:1;"/>
<path d="M43.8115 34.9633C42.9923 35.5489 42.2311 36.0954 41.4671 36.6392C39.5503 38 37.6363 39.3636 35.7084 40.7104C35.4105 40.9196 35.2974 41.1036 35.4547 41.4661C35.6643 41.9569 35.8132 42.4728 36.0007 42.9747C36.1083 43.2619 36.1138 43.4125 35.7222 43.3819C33.8467 43.2257 31.9713 43.0918 30.0958 42.9496C29.4311 42.8994 28.7637 42.8688 28.1018 42.7879C27.7129 42.7405 27.5998 42.8409 27.6246 43.2452C27.7598 45.3673 27.8756 47.4921 27.9887 49.6142C28.0411 50.5986 28.0356 50.5986 27.0648 50.5986C25.7464 50.5986 25.7492 50.5986 25.8292 49.2712C25.9478 47.2858 26.047 45.3004 26.1794 43.3149C26.207 42.8994 26.1463 42.7433 25.6775 42.7823C23.2421 42.9915 20.8013 43.1671 18.3632 43.354C17.7509 43.4014 17.7509 43.3958 17.9136 42.7907C18.0708 42.1967 18.5314 41.5386 18.3163 41.0283C18.1122 40.5487 17.4227 40.2754 16.9373 39.9241C14.7833 38.3653 12.6237 36.8093 10.4697 35.2505C9.98432 34.8991 9.98432 34.8991 10.5001 34.6454C10.9138 34.4418 11.3192 34.2132 11.7467 34.0431C12.1494 33.8813 12.2597 33.6889 12.097 33.2427C11.6226 31.9489 11.2144 30.6299 10.7538 29.3304C10.6214 28.9568 10.7235 28.9177 11.0517 28.9651C12.5217 29.1826 13.9972 29.375 15.4645 29.6121C15.8368 29.6706 15.983 29.5451 16.0961 29.2217C16.2616 28.7504 16.485 28.2987 16.6449 27.8274C16.7746 27.451 16.8932 27.5207 17.1166 27.7521C18.2804 28.9707 19.4361 30.2032 20.8178 31.1792C21.0302 31.3298 21.2453 31.6003 21.5459 31.4274C21.8714 31.2434 21.8162 30.892 21.7914 30.5881C21.7142 29.6149 21.3694 28.703 21.1322 27.7689C20.7461 26.2435 20.6468 24.6652 20.1862 23.0869C20.7323 23.204 21.1681 23.4634 21.6259 23.6586C21.8466 23.7506 22.0534 23.8788 22.2713 23.9737C22.9912 24.2916 23.5703 24.1577 24.0364 23.5191C24.9824 22.2252 25.7547 20.817 26.6262 19.473C26.7172 19.3335 26.7614 19.1495 26.9958 19.0547C27.7543 20.2928 28.5155 21.5393 29.2794 22.783C29.4504 23.0618 29.6435 23.3323 29.7814 23.6251C30.0434 24.1856 30.4819 24.2748 31.0198 24.1744C31.7534 24.035 32.4043 23.692 33.0497 23.3323C33.1958 23.2514 33.3089 23.1064 33.5627 23.1008C33.4137 23.8565 33.2565 24.5871 33.1241 25.3233C32.8235 26.9881 32.4153 28.6277 32.0154 30.273C31.9244 30.6466 31.7534 31.1151 32.1092 31.3912C32.4898 31.6895 32.898 31.3939 33.2427 31.1764C34.5611 30.3427 35.6091 29.1966 36.6709 28.07C37.0709 27.6462 37.0653 27.6406 37.2832 28.1983C37.4404 28.5998 37.6197 28.993 37.7548 29.4029C37.8541 29.7013 38.0279 29.7376 38.3037 29.6902C39.7848 29.4252 41.2686 29.1882 42.7469 28.9122C43.1606 28.8341 43.1688 28.94 43.0585 29.2942C42.6255 30.694 42.2284 32.105 41.7926 33.5049C41.6878 33.8395 41.7485 33.9873 42.0712 34.1239C42.6366 34.3554 43.1771 34.651 43.8115 34.9633Z" fill="#D90306" style="fill:#D90306;fill:color(display-p3 0.8510 0.0118 0.0235);fill-opacity:1;"/>
<path d="M84.3511 34.8427H72.8033L70.5666 41.4041H65.4697L75.9171 12.8635H81.5628L91.9743 41.4041H86.5851L84.3511 34.8427ZM82.9942 30.8412L78.631 18.053H78.5565L74.1934 30.8412H82.9942Z" fill="white" style="fill:white;fill-opacity:1;"/>
<path d="M112.544 29.0621V41.4041H107.704V29.8038C107.704 27.283 106.126 25.5792 103.743 25.5792C101.104 25.5792 99.3081 27.6176 99.3081 30.7324V41.4069H94.4678V22.0573H99.3081V25.3561H99.3826C100.519 23.1309 103.158 21.6864 106.018 21.6864C109.94 21.6864 112.544 24.6144 112.544 29.0621Z" fill="white" style="fill:white;fill-opacity:1;"/>
<path d="M116.283 31.7307C116.283 25.688 120.205 21.6864 126.146 21.6864C131.058 21.6864 134.834 24.6506 135.496 29.0621H130.73C130.253 26.9484 128.457 25.5764 126.146 25.5764C123.176 25.5764 121.234 28.022 121.234 31.7307C121.234 35.4004 123.176 37.885 126.146 37.885C128.565 37.885 130.399 36.4768 130.801 34.3631H135.603C134.944 38.8108 131.168 41.775 126.143 41.775C120.205 41.775 116.283 37.7707 116.283 31.7307Z" fill="white" style="fill:white;fill-opacity:1;"/>
<path d="M139.379 12.8635H144.219V18.2008H139.379V12.8635ZM139.379 22.0573H144.219V41.4069H139.379V22.0573Z" fill="white" style="fill:white;fill-opacity:1;"/>
<path d="M149.498 12.8635H154.338V41.4041H149.498V12.8635Z" fill="white" style="fill:white;fill-opacity:1;"/>
<path d="M177.909 32.584H163.098C163.355 36.0306 165.335 38.2559 168.195 38.2559C170.578 38.2559 172.594 36.8477 173.143 34.6977H177.834C176.99 38.9614 173.143 41.7778 168.192 41.7778C162.29 41.7778 158.368 37.7372 158.368 31.7335C158.368 25.6908 162.29 21.6892 168.192 21.6892C174.02 21.6892 177.906 25.766 177.906 31.9203V32.584H177.909ZM163.17 30.0994H173.104C172.627 27.0237 170.757 25.0578 168.192 25.0578C165.553 25.0578 163.686 27.0237 163.17 30.0994Z" fill="white" style="fill:white;fill-opacity:1;"/>
<path d="M112.34 51.0357C112.34 46.6438 114.797 43.7158 118.499 43.7158C121.615 43.7158 123.924 45.7905 124.29 48.9053H122.401C122.089 46.7553 120.531 45.3276 118.496 45.3276C115.983 45.3276 114.317 47.6058 114.317 51.0357C114.317 54.4656 115.986 56.7439 118.496 56.7439C120.531 56.7439 122.089 55.2799 122.401 53.0937H124.29C123.924 56.2614 121.596 58.3556 118.499 58.3556C114.797 58.3556 112.34 55.4277 112.34 51.0357Z" fill="white" style="fill:white;fill-opacity:1;"/>
<path d="M134.062 51.4429V58.1716H132.302V56.5403H132.266C131.571 57.6696 130.195 58.3556 128.637 58.3556C126.822 58.3556 125.611 57.3378 125.611 55.7985C125.611 53.445 127.683 53.0379 132.302 52.1288V51.3676C132.302 50.3107 131.403 49.6443 130.049 49.6443C128.711 49.6443 127.796 50.4223 127.757 51.5906H126.033C126.088 49.6638 127.718 48.3838 130.101 48.3838C132.484 48.3838 134.062 49.608 134.062 51.4429ZM132.302 53.2219C129.371 53.8326 127.371 54.0752 127.371 55.6508C127.371 56.4845 128.085 57.059 129.15 57.059C131.092 57.059 132.302 55.7985 132.302 54.4461V53.2219Z" fill="white" style="fill:white;fill-opacity:1;"/>
<path d="M145.389 52.1121V58.1716H143.555V52.3157C143.555 50.8712 142.639 49.8869 141.263 49.8869C139.705 49.8869 138.679 51.0915 138.679 52.8706V58.1716H136.845V48.5707H138.679V50.294H138.715C139.247 49.1451 140.565 48.3838 142.049 48.3838C144.051 48.3866 145.389 49.8673 145.389 52.1121Z" fill="white" style="fill:white;fill-opacity:1;"/>
<path d="M155.82 51.4429V58.1716H154.06V56.5403H154.024C153.329 57.6696 151.953 58.3556 150.395 58.3556C148.58 58.3556 147.369 57.3378 147.369 55.7985C147.369 53.445 149.44 53.0379 154.06 52.1288V51.3676C154.06 50.3107 153.161 49.6443 151.807 49.6443C150.469 49.6443 149.553 50.4223 149.515 51.5906H147.791C147.846 49.6638 149.476 48.3838 151.859 48.3838C154.242 48.3838 155.82 49.608 155.82 51.4429ZM154.06 53.2219C151.128 53.8326 149.129 54.0752 149.129 55.6508C149.129 56.4845 149.843 57.059 150.908 57.059C152.849 57.059 154.06 55.7985 154.06 54.4461V53.2219Z" fill="white" style="fill:white;fill-opacity:1;"/>
<path d="M167.442 43.8999V58.1716H165.608V56.3563H165.572C165.04 57.5971 163.631 58.3584 162.073 58.3584C159.615 58.3584 157.966 56.3758 157.966 53.3725C157.966 50.3693 159.615 48.3866 162.089 48.3866C163.628 48.3866 165.021 49.1479 165.572 50.4083H165.608V43.9027H167.442V43.8999ZM165.608 53.3725C165.608 51.2783 164.453 49.8869 162.732 49.8869C160.991 49.8869 159.836 51.2783 159.836 53.3725C159.836 55.4667 160.991 56.8554 162.732 56.8554C164.455 56.8554 165.608 55.4667 165.608 53.3725Z" fill="white" style="fill:white;fill-opacity:1;"/>
<path d="M178 51.4429V58.1716H176.241V56.5403H176.205C175.51 57.6696 174.134 58.3556 172.575 58.3556C170.761 58.3556 169.55 57.3378 169.55 55.7985C169.55 53.445 171.621 53.0379 176.241 52.1288V51.3676C176.241 50.3107 175.342 49.6443 173.987 49.6443C172.65 49.6443 171.734 50.4223 171.696 51.5906H169.972C170.027 49.6638 171.657 48.3838 174.04 48.3838C176.423 48.3838 178 49.608 178 51.4429ZM176.241 53.2219C173.309 53.8326 171.309 54.0752 171.309 55.6508C171.309 56.4845 172.024 57.059 173.088 57.059C175.03 57.059 176.241 55.7985 176.241 54.4461V53.2219Z" fill="white" style="fill:white;fill-opacity:1;"/>
</g>
<defs>
<clipPath id="clip0_228_10">
<rect width="178" height="72" fill="white" style="fill:white;fill-opacity:1;"/>
</clipPath>
</defs>
</svg>
