<svg width="146" height="84" viewBox="0 0 146 84" fill="none" xmlns="http://www.w3.org/2000/svg">
<g clip-path="url(#clip0_552_952)">
<mask id="mask0_552_952" style="mask-type:luminance" maskUnits="userSpaceOnUse" x="0" y="0" width="146" height="84">
<path d="M0 2.28882e-05H145.235V83.6357H0V2.28882e-05Z" fill="white" style="fill:white;fill-opacity:1;"/>
</mask>
<g mask="url(#mask0_552_952)">
<path d="M112.988 16.3759C109.889 14.5767 106.673 13.0076 103.319 11.6521C103.66 10.4597 104.007 9.27437 104.374 8.0949C102.258 8.53852 100.195 9.10654 98.1893 9.7978C94.4747 8.60659 90.6419 7.69 86.7156 7.08325C88.7403 8.66583 90.6926 10.3395 92.5665 12.0992C90.495 13.0953 88.4916 14.228 86.5693 15.4898C89.4731 15.0861 92.3816 14.8443 95.2808 14.7739C97.2662 16.816 99.158 18.9707 100.953 21.2334C101.402 19.1162 101.897 17.0131 102.437 14.9241C105.997 15.1682 109.509 15.6494 112.988 16.3759Z" fill="#83C8EF" style="fill:#83C8EF;fill:color(display-p3 0.5137 0.7843 0.9373);fill-opacity:1;"/>
<path d="M126.887 32.0046C129.348 32.7534 131.773 33.6124 134.156 34.5818C131.69 31.506 128.989 28.6278 126.076 25.9735C125.663 23.8375 125.121 21.7473 124.457 19.7123C124.447 19.7076 124.433 19.7041 124.421 19.6982C123.583 20.6113 122.728 21.5126 121.866 22.4057C119.068 20.2028 116.075 18.1725 112.988 16.3769C115.311 18.994 117.51 21.8212 119.497 24.7963C117.955 26.3202 116.381 27.8114 114.776 29.2689C117.618 29.6976 120.437 30.271 123.222 30.9871C123.473 31.4425 123.72 31.9025 123.961 32.3684C125.075 34.5267 126.074 36.7143 126.969 38.9207C127.063 37.1825 127.072 35.4221 126.989 33.6453C126.966 33.0961 126.926 32.5515 126.887 32.0046Z" fill="#1C63B7" style="fill:#1C63B7;fill:color(display-p3 0.1098 0.3882 0.7176);fill-opacity:1;"/>
<path d="M109.969 35.2086C109.756 34.7967 109.537 34.3895 109.318 33.9822C111.174 32.4542 112.994 30.8827 114.776 29.269C111.891 28.8348 108.984 28.5484 106.061 28.4111C104.484 25.9311 102.778 23.5353 100.952 21.2334C100.45 23.5876 100.007 25.9606 99.6159 28.3513C96.4152 28.4449 93.2224 28.7203 90.0527 29.1763C93.0607 30.4626 96.0054 31.8827 98.8777 33.4201C98.4951 36.4081 98.1874 39.4148 97.9791 42.451C100.476 40.7563 102.933 38.9947 105.318 37.1627C108.094 38.8979 110.792 40.756 113.404 42.7314C112.377 40.1711 111.231 37.6607 109.969 35.2086Z" fill="#1C8CD5" style="fill:#1C8CD5;fill:color(display-p3 0.1098 0.5490 0.8353);fill-opacity:1;"/>
<path d="M121.813 59.8549C121.533 59.8021 121.12 59.761 120.577 59.7246C120.032 59.6835 119.429 59.6648 118.774 59.6648C117.505 59.6648 116.562 59.8936 115.939 60.3525C115.319 60.8102 115.01 61.4451 115.01 62.2608C115.01 63.0494 115.269 63.6621 115.789 64.108C116.307 64.5505 117.226 64.7758 118.545 64.7758C119.254 64.7758 119.887 64.7371 120.443 64.662C121 64.5822 121.457 64.5059 121.813 64.4296V59.8549ZM126.259 67.0244C125.449 67.3026 124.372 67.5889 123.027 67.8812C121.685 68.1734 120.103 68.3178 118.278 68.3178C116.91 68.3178 115.739 68.1781 114.765 67.9011C113.788 67.6218 112.998 67.2322 112.386 66.7357C111.778 66.2405 111.334 65.6372 111.059 64.926C110.779 64.2137 110.638 63.4156 110.638 62.5248C110.638 60.721 111.286 59.2916 112.578 58.2365C113.87 57.1814 115.933 56.6533 118.774 56.6533C119.277 56.6533 119.821 56.6733 120.406 56.7096C120.989 56.7507 121.457 56.7941 121.813 56.8434V56.043C121.813 55.3846 121.705 54.8448 121.489 54.4246C121.272 54.0033 120.989 53.6817 120.634 53.4529C120.28 53.224 119.856 53.0668 119.359 52.9752C118.866 52.886 118.341 52.8414 117.783 52.8414C116.643 52.8414 115.547 52.9752 114.495 53.2416C113.445 53.5116 112.614 53.758 112.007 53.9857V50.2501C112.311 50.1234 112.691 49.9837 113.147 49.8311C113.603 49.6762 114.128 49.5366 114.726 49.4098C115.319 49.2842 115.952 49.1763 116.625 49.0871C117.297 48.9979 117.988 48.9533 118.697 48.9533C121.429 48.9533 123.378 49.5917 124.53 50.8569C125.683 52.1326 126.259 53.9223 126.259 56.232V67.0244ZM101.358 53.2604C101.029 53.2099 100.6 53.1513 100.064 53.0891C99.533 53.0292 98.9398 52.994 98.2788 52.994C97.5722 52.994 96.8924 53.0409 96.2478 53.1278C95.6008 53.2158 95.0603 53.3261 94.6309 53.4529V67.8624H90.1851V50.2865C91.1223 49.9321 92.2314 49.6211 93.5125 49.3535C94.7912 49.0871 96.2162 48.9533 97.7863 48.9533C98.5456 48.9533 99.2464 48.985 99.877 49.0495C100.506 49.1141 101.004 49.1833 101.358 49.2596V53.2604ZM78.9501 52.4987C77.6526 52.4987 76.5962 52.8907 75.7749 53.6817C74.9501 54.4692 74.4762 55.5607 74.3499 56.9584H83.1654C83.1654 55.6651 82.818 54.5983 82.1195 53.758C81.4234 52.9189 80.3658 52.4987 78.9501 52.4987ZM86.3208 66.8308C85.9148 67.0115 85.4855 67.1934 85.028 67.3847C84.5717 67.5737 84.0569 67.7474 83.4895 67.9011C82.9174 68.0513 82.2915 68.1734 81.6071 68.2626C80.9238 68.3506 80.1493 68.3952 79.2906 68.3952C76.3259 68.3952 74.0012 67.569 72.3165 65.9166C70.6306 64.2653 69.7883 61.904 69.7883 58.828C69.7883 57.3023 70.0105 55.9304 70.4528 54.7098C70.8974 53.4893 71.5303 52.4624 72.3551 51.6221C73.1764 50.7853 74.1732 50.1351 75.3373 49.6762C76.5038 49.2209 77.8083 48.9908 79.2508 48.9908C80.7214 48.9908 81.9815 49.2279 83.0332 49.6974C84.0827 50.1668 84.952 50.8088 85.6387 51.6221C86.3208 52.4365 86.8215 53.3825 87.1374 54.4622C87.4556 55.5431 87.6112 56.6779 87.6112 57.8727C87.6112 58.3081 87.6066 58.6954 87.5913 59.0369C87.5785 59.3808 87.5621 59.6648 87.5364 59.8936H74.3101C74.3347 60.5051 74.4493 61.0895 74.6529 61.6482C74.8553 62.2091 75.1864 62.7103 75.6403 63.1551C76.0966 63.5975 76.6909 63.9508 77.428 64.2019C78.1616 64.4566 79.0624 64.5822 80.1247 64.5822C81.5193 64.5822 82.7478 64.4061 83.8113 64.0517C84.8759 63.6961 85.7253 63.364 86.3582 63.0577L86.3208 66.8308ZM57.925 53.224C57.1903 53.224 56.4953 53.2944 55.8355 53.4329C55.1768 53.5738 54.6433 53.7193 54.2408 53.8719V63.6304C54.6702 63.8346 55.1698 63.9918 55.7407 64.108C56.3116 64.2207 56.9879 64.2794 57.7741 64.2794C59.3956 64.2794 60.6884 63.8017 61.6501 62.8499C62.613 61.897 63.0938 60.4792 63.0938 58.6003C63.0938 56.8962 62.62 55.5748 61.6688 54.6335C60.7188 53.6935 59.4693 53.224 57.925 53.224ZM49.7927 50.8569C50.807 50.4027 52.0214 49.9708 53.4417 49.5624C54.8597 49.1587 56.4824 48.9533 58.3064 48.9533C59.9034 48.9533 61.2898 49.2162 62.4667 49.7337C63.6449 50.2572 64.6206 50.9531 65.3928 51.8145C66.1661 52.6795 66.7429 53.6759 67.1219 54.806C67.5033 55.9362 67.6929 57.1134 67.6929 58.3292C67.6929 59.9324 67.4519 61.3559 66.971 62.6011C66.489 63.8487 65.8233 64.8967 64.9763 65.7452C64.1245 66.5984 63.1383 67.2521 62.0116 67.7087C60.8826 68.1675 59.6741 68.3952 58.3824 68.3952C57.4699 68.3952 56.6708 68.3178 55.9876 68.1675C55.3031 68.015 54.7193 67.8354 54.2408 67.6335V76.5518H49.7927V50.8569ZM19.0476 50.1738C19.5039 50.0471 20.0362 49.9133 20.6434 49.7725C21.253 49.6328 21.9163 49.499 22.6382 49.3734C23.3612 49.2467 24.1135 49.1458 24.8985 49.0671C25.6847 48.9908 26.4709 48.9533 27.2548 48.9533C28.4715 48.9533 29.6064 49.0753 30.6582 49.3136C31.7065 49.5565 32.5383 49.9591 33.1467 50.5142C33.9071 50.1609 34.8056 49.81 35.8446 49.4673C36.8835 49.127 38.1236 48.9533 39.5685 48.9533C41.9248 48.9533 43.6352 49.4955 44.6999 50.574C45.7622 51.6537 46.2957 53.2369 46.2957 55.3189V67.8624H41.8499V56.1592C41.8499 55.0912 41.5878 54.3108 41.0707 53.8132C40.5501 53.3191 39.6445 53.0715 38.3541 53.0715C37.6182 53.0715 36.9268 53.1407 36.2821 53.2815C35.6351 53.4224 35.097 53.5796 34.6664 53.758C34.7436 54.062 34.7986 54.4246 34.8372 54.8448C34.8747 55.2638 34.8946 55.6769 34.8946 56.0818V67.8624H30.4476V56.2731C30.4476 55.0537 30.1762 54.2169 29.6321 53.758C29.0858 53.3015 28.1674 53.0715 26.8757 53.0715C26.2159 53.0715 25.5829 53.1149 24.9757 53.2041C24.3674 53.2944 23.8725 53.3895 23.4934 53.4893V67.8624H19.0476V50.1738ZM129.629 40.5397H134.077V67.8624H129.629V48.8864V40.5397ZM103.299 49.4497H107.745V67.8624H103.299V58.4266V49.4497ZM11.0791 40.5397H15.5237V67.8624H11.0791V49.0871V40.5397Z" fill="#1C63B7" style="fill:#1C63B7;fill:color(display-p3 0.1098 0.3882 0.7176);fill-opacity:1;"/>
</g>
</g>
<defs>
<clipPath id="clip0_552_952">
<rect width="145.235" height="83.6357" fill="white" style="fill:white;fill-opacity:1;"/>
</clipPath>
</defs>
</svg>
