<svg width="54" height="72" viewBox="0 0 54 72" fill="none" xmlns="http://www.w3.org/2000/svg">
<path d="M26.4137 0H27.5197C28.1982 0.577226 28.9235 1.10705 29.5524 1.73726C35.5731 7.77722 42.8184 10.9171 51.2883 11.1569C52.5267 11.1904 53.4175 11.5613 53.925 12.7269V36.7835C53.8809 36.962 53.8257 37.1377 53.8009 37.3162C53.5582 39.0172 53.4534 40.7516 53.0617 42.4192C49.7328 56.5738 41.3374 66.236 27.8727 71.4032C27.288 71.5984 26.6592 71.5984 26.0745 71.4004C19.1601 68.9381 13.3435 64.8529 8.74031 59.0751C3.0119 51.8834 0.0718484 43.6461 0.019446 34.3993C-0.0191663 27.4308 0.0111719 20.4623 0.01393 13.4965C0.01393 12.0325 0.813756 11.2824 2.26999 11.1737C4.26128 11.0231 6.27464 10.9171 8.23008 10.5379C14.5846 9.30812 19.982 6.23237 24.53 1.59225C25.1037 1.00666 25.7849 0.529821 26.4137 0ZM4.15648 15.3509V15.8668C4.15648 22.0183 4.10959 28.1698 4.18406 34.3213C4.1813 36.4155 4.37712 38.5069 4.766 40.5648C7.36958 53.2721 14.6177 62.109 26.513 67.0698C26.8247 67.1786 27.1639 67.1758 27.4728 67.0586C41.0423 61.7074 49.7438 48.8021 49.7797 33.9922C49.7935 28.0275 49.7824 22.0629 49.7824 16.0982V15.3565C40.9457 14.7011 33.3419 11.2824 26.9736 5.1058C20.5612 11.2936 12.9932 14.7123 4.15648 15.3509Z" fill="#D90306" style="fill:#D90306;fill:color(display-p3 0.8510 0.0118 0.0235);fill-opacity:1;"/>
<path d="M43.8115 34.9633C42.9923 35.5489 42.2311 36.0954 41.4671 36.6392C39.5503 38 37.6363 39.3636 35.7084 40.7104C35.4105 40.9196 35.2974 41.1036 35.4547 41.4661C35.6643 41.9569 35.8132 42.4728 36.0007 42.9747C36.1083 43.2619 36.1138 43.4125 35.7222 43.3819C33.8467 43.2257 31.9713 43.0918 30.0958 42.9496C29.4311 42.8994 28.7637 42.8688 28.1018 42.7879C27.7129 42.7405 27.5998 42.8409 27.6246 43.2452C27.7598 45.3673 27.8756 47.4921 27.9887 49.6142C28.0411 50.5986 28.0356 50.5986 27.0648 50.5986C25.7464 50.5986 25.7492 50.5986 25.8292 49.2712C25.9478 47.2858 26.047 45.3004 26.1794 43.3149C26.207 42.8994 26.1463 42.7433 25.6775 42.7823C23.2421 42.9915 20.8013 43.1671 18.3632 43.354C17.7509 43.4014 17.7509 43.3958 17.9136 42.7907C18.0708 42.1967 18.5314 41.5386 18.3163 41.0283C18.1122 40.5487 17.4227 40.2754 16.9373 39.9241C14.7833 38.3653 12.6237 36.8093 10.4697 35.2505C9.98432 34.8991 9.98432 34.8991 10.5001 34.6454C10.9138 34.4418 11.3192 34.2132 11.7467 34.0431C12.1494 33.8813 12.2597 33.6889 12.097 33.2427C11.6226 31.9489 11.2144 30.6299 10.7538 29.3304C10.6214 28.9568 10.7235 28.9177 11.0517 28.9651C12.5217 29.1826 13.9972 29.375 15.4645 29.6121C15.8368 29.6706 15.983 29.5451 16.0961 29.2217C16.2616 28.7504 16.485 28.2987 16.6449 27.8274C16.7746 27.451 16.8932 27.5207 17.1166 27.7521C18.2804 28.9707 19.4361 30.2032 20.8178 31.1792C21.0302 31.3298 21.2453 31.6003 21.5459 31.4274C21.8714 31.2434 21.8162 30.892 21.7914 30.5881C21.7142 29.6149 21.3694 28.703 21.1322 27.7689C20.7461 26.2435 20.6468 24.6652 20.1862 23.0869C20.7323 23.204 21.1681 23.4634 21.6259 23.6586C21.8466 23.7506 22.0534 23.8788 22.2713 23.9737C22.9912 24.2916 23.5703 24.1577 24.0364 23.5191C24.9824 22.2252 25.7547 20.817 26.6262 19.473C26.7172 19.3335 26.7614 19.1495 26.9958 19.0547C27.7543 20.2928 28.5155 21.5393 29.2794 22.783C29.4504 23.0618 29.6435 23.3323 29.7814 23.6251C30.0434 24.1856 30.4819 24.2748 31.0198 24.1744C31.7534 24.035 32.4043 23.692 33.0497 23.3323C33.1958 23.2514 33.3089 23.1064 33.5627 23.1008C33.4137 23.8565 33.2565 24.5871 33.1241 25.3233C32.8235 26.9881 32.4153 28.6277 32.0154 30.273C31.9244 30.6466 31.7534 31.1151 32.1092 31.3912C32.4898 31.6895 32.898 31.3939 33.2427 31.1764C34.5611 30.3427 35.6091 29.1966 36.6709 28.07C37.0709 27.6462 37.0653 27.6406 37.2832 28.1983C37.4404 28.5998 37.6197 28.993 37.7548 29.4029C37.8541 29.7013 38.0279 29.7376 38.3037 29.6902C39.7848 29.4252 41.2686 29.1882 42.7469 28.9122C43.1606 28.8341 43.1688 28.94 43.0585 29.2942C42.6255 30.694 42.2284 32.105 41.7926 33.5049C41.6878 33.8395 41.7485 33.9873 42.0712 34.1239C42.6366 34.3554 43.1771 34.651 43.8115 34.9633Z" fill="#D90306" style="fill:#D90306;fill:color(display-p3 0.8510 0.0118 0.0235);fill-opacity:1;"/>
</svg>
