<svg width="218" height="41" viewBox="0 0 218 41" fill="none" xmlns="http://www.w3.org/2000/svg">
<g clip-path="url(#clip0_552_884)">
<path d="M116.975 25.0432L113.827 25.4211C111.089 25.7631 108.691 26.7441 108.691 29.0859C108.691 30.7485 110.114 31.884 111.951 31.884C114.126 31.884 115.924 30.4469 117.05 29.0099V25.0435L116.975 25.0432ZM117.012 35.1328V32.753C115.888 34.076 114.088 35.6246 110.9 35.6246C107.227 35.6246 104.19 33.2802 104.19 29.2759C104.19 24.3995 108.726 22.6255 113.151 22.1338L114.875 21.9434C116.562 21.7911 117.161 20.8485 117.161 19.7156C117.161 18.3167 115.851 17.2978 113.865 17.2978C111.577 17.2978 109.364 18.9578 108.54 20.2808L105.915 17.1457C107.527 15.0269 110.378 13.5545 114.088 13.5545C118.885 13.5545 121.661 16.0483 121.661 20.2049V35.1325L117.012 35.1328ZM130.392 35.1341H125.781V14.0477H130.392V16.4275C132.041 14.9145 134.515 13.5534 137.215 13.5534C139.689 13.5534 143.061 14.993 143.061 20.1303V35.1341H138.452V21.3392C138.452 19.261 137.59 17.4844 135.453 17.4844C133.69 17.4844 131.443 18.9948 130.392 19.9807L130.392 35.1341ZM159.288 14.0466H163.899V35.133H159.137V32.8673C157.862 34.0762 155.801 35.6247 153.101 35.6247C150.403 35.6247 146.654 34.1877 146.654 28.8984V14.0466H151.265V27.3853C151.265 29.8437 152.316 31.5443 154.488 31.5443C156.289 31.5443 157.976 30.3708 159.288 28.8984L159.288 14.0466ZM173.601 35.1341H168.99V7.39478L173.601 2.78467V35.1341ZM183.496 35.1336H178.697V14.0471H183.496V35.1336ZM181.098 4.56075C182.671 4.56075 184.019 5.88372 184.019 7.50829C184.019 9.13286 182.671 10.4938 181.098 10.4938C179.483 10.4938 178.133 9.13286 178.133 7.50829C178.133 5.88372 179.483 4.56075 181.098 4.56075ZM198.113 17.9007H193.726V35.1349H189.118V17.9007H186.304V14.0459H189.118V9.69926C189.118 6.2221 191.328 3.08691 195.677 3.08691C197.701 3.08691 199.388 3.65231 200.399 4.18178L198.938 7.8111C198.299 7.43321 197.326 7.05583 196.388 7.05583C194.925 7.05583 193.726 8.1507 193.726 9.96544V14.0459H199.199L198.113 17.9007ZM213.031 22.2843C213.031 19.7169 211.419 17.2965 208.608 17.2965C205.911 17.2965 203.809 19.8664 203.733 22.2843H213.031ZM203.585 25.8376C203.623 29.2388 206.059 31.6566 208.945 31.6566C211.12 31.6566 213.367 30.1841 214.343 28.4075L217.229 31.1269C215.542 33.6208 212.281 35.623 208.495 35.623C202.534 35.623 198.823 31.0889 198.823 24.588C198.823 18.3179 202.833 13.5557 208.643 13.5557C214.192 13.5557 218.092 17.2205 217.865 25.8375L203.585 25.8376ZM77.7322 35.1341H72.709V5.86397H78.1445L86.6927 20.2646H86.7681L95.2758 5.86397H100.601V35.1341H95.5372V14.405H95.4644L86.6523 29.1453L77.8076 14.405H77.7322V35.1341Z" fill="black" style="fill:black;fill-opacity:1;"/>
<path d="M29.1587 7.69536V40.6228L36.417 33.3033V0.378447L29.1587 7.69536ZM14.6424 40.6217L21.9006 33.3049V0.377441L14.6424 7.69435V40.6217ZM0.125 40.6217L7.38331 33.3049V0.377441L0.125 7.69435V40.6217Z" fill="#00AC5B" style="fill:#00AC5B;fill:color(display-p3 0.0000 0.6745 0.3569);fill-opacity:1;"/>
</g>
<defs>
<clipPath id="clip0_552_884">
<rect width="218" height="41" fill="white" style="fill:white;fill-opacity:1;"/>
</clipPath>
</defs>
</svg>
