<svg width="65" height="60" viewBox="0 0 65 60" fill="none" xmlns="http://www.w3.org/2000/svg">
<path fillRule="evenodd" clipRule="evenodd" d="M45.8595 22.7034C56.2814 22.7034 64.3876 31.0423 64.3876 41.4664C64.3876 51.6611 56.2814 60 45.8595 60C35.6678 60 27.3292 51.6611 27.3292 41.4664V0H36.8267V41.2355C36.8267 46.5645 41.2273 50.7336 46.322 50.7336C51.4168 50.7336 55.5865 46.5645 55.5865 41.2355C55.5865 36.1403 51.4168 31.9698 46.322 31.9698H41.4589V22.7034H45.8595ZM9.49606 32.6649C9.49606 32.2008 9.7277 31.9698 10.1925 31.9698H22.9294V22.9343H7.17959C3.24232 22.9343 0 25.9464 0 30.1155V59.5359H9.49606V32.6649Z" fill="#E09142" style="fill:#E09142;fill:color(display-p3 0.8784 0.5686 0.2588);fill-opacity:1;"/>
</svg>
