<svg width="66" height="86" viewBox="0 0 66 86" fill="none" xmlns="http://www.w3.org/2000/svg">
<g clip-path="url(#clip0_552_996)">
<path d="M65.4574 75.2166C65.4574 78.0356 64.3033 79.6741 62.0458 80.5459C53.2721 83.9263 42.8829 85.6666 33.0027 85.6666C23.1175 85.6666 12.7283 83.9247 3.95624 80.5459C1.69878 79.6741 0.542969 78.0356 0.542969 75.2166V0.333252H65.4574V75.2166Z" fill="#005DAA" style="fill:#005DAA;fill:color(display-p3 0.0000 0.3647 0.6667);fill-opacity:1;"/>
<path d="M17.9522 45.9683C8.96342 40.3567 5.99836 37.8727 5.74224 34.1918C5.69955 33.4464 5.8703 32.1839 6.18388 31.2842L5.33672 30.7227C4.6603 31.803 4.22852 33.2232 4.22852 34.5251C4.22852 36.6528 4.90657 38.2618 5.74224 39.5473C7.00477 41.4912 8.33297 42.7143 11.6067 45.1704C15.1332 47.8153 17.5401 50.9035 18.9258 54.1378H19.4265V50.4685C24.1893 53.1741 28.3923 55.7156 30.4593 60.2633H30.9584C30.149 55.5514 27.4827 51.9181 17.9522 45.9683ZM59.3547 60.2699H58.7407C58.7407 56.9174 55.6656 55.9996 52.4461 55.9996H42.3786C42.7037 57.6545 42.8531 59.5902 42.6052 61.4191H42.1028C41.1719 53.8801 36.9131 50.1499 30.9567 46.1489V49.5835H30.456C28.8717 46.0406 25.396 42.7209 22.1059 40.3633C21.2308 39.7394 20.3196 39.0925 19.4216 38.4539V42.1495H18.9208C17.5253 38.4818 14.992 35.7449 11.3785 32.4827C7.47268 28.9693 5.90149 26.8662 4.98538 24.4478C4.43046 22.9834 4.27613 21.7996 4.25478 20.1923C4.22031 17.3176 5.67657 14.7203 7.48581 13.7516V15.1438C6.5894 16.3308 6.12478 17.8396 6.12149 19.3681C6.11657 20.7817 6.45477 22.3513 7.15746 23.6877C9.35581 27.8709 16.7602 33.0064 21.459 36.1636C36.0791 45.9683 38.9982 47.6791 41.4248 52.8819C41.6957 53.4614 41.9649 54.2396 42.1898 55.1475C44.3012 54.8208 51.9634 53.6519 53.3737 53.4286C53.6478 53.3843 54.211 53.3169 54.5032 53.2972C55.8248 52.4632 56.8526 51.3993 57.7539 50.0728L52.1555 49.6377C51.8649 50.2796 51.5808 50.8214 51.3296 51.2532H50.8699C51.0243 50.6852 51.1573 50.1237 51.2738 49.5704L49.8389 49.4686V49.16L51.3904 48.9679C51.6859 47.3835 51.8287 45.8829 51.8567 44.4825L44.7953 44.0803C44.7609 44.8059 44.7543 45.4873 44.7789 46.1227H44.3291C44.1747 45.4167 44.0565 44.7173 43.9679 44.0359L42.4213 43.944V43.4745L43.8924 43.394C43.6855 41.524 43.6724 39.7821 43.7462 38.2831L39.6204 38.0976C39.8125 38.4621 40.0145 38.8249 40.1557 39.2272C41.0488 41.7177 40.8354 44.6336 40.5431 45.9782H40.0424C39.9685 44.425 39.4481 42.5189 38.9506 41.3598C37.8096 38.669 35.25 36.2884 30.9551 33.5302V36.9681H30.4544C29.0277 32.4532 25.4716 29.9396 20.1867 27.2257C15.8261 24.988 14.4716 22.2905 14.7179 18.1171L16.1922 18.9905C16.5682 22.8914 19.5661 25.1472 22.7068 25.1242C24.5554 25.1078 26.2875 24.8616 27.9589 24.5299C30.3756 24.039 32.6117 23.6269 34.4784 24.2853V21.9819H33.0106C32.4852 22.4334 31.4214 22.9571 29.8568 22.985C28.1378 23.0145 24.8838 22.0246 24.8838 18.388C24.8838 15.2292 27.555 14.7235 29.7303 14.7235C30.8993 14.7235 32.8366 14.6825 33.4933 14.648C33.9776 14.6152 34.3421 14.5429 34.5802 14.3065C34.8264 14.0652 34.9003 13.8156 34.9561 13.4922C35.0251 13.0998 35.0251 12.7009 35.0251 12.0228V9.71446H24.9396V13.7122L21.1225 12.2592V11.3021H22.9481V9.71446H16.1462V6.39806H13.828C12.5901 6.39806 11.1601 7.2682 11.0567 8.95103C10.9631 10.5649 11.6888 11.9259 13.3519 11.9259H13.6491V13.8583H13.3519C10.4377 13.8583 8.24432 11.6715 8.24432 8.76879C8.24432 5.74134 10.8203 3.43628 13.938 3.43628H18.8568V6.75432H37.9918V11.6583C37.9918 12.4858 37.9442 13.594 37.8654 14.2934C37.8063 14.8056 37.6273 15.7234 36.6619 16.4622C36.0758 16.9055 35.1958 17.0844 33.7708 17.091C33.3029 17.0926 31.9467 17.0713 30.3214 16.9695C28.1411 16.8299 27.5205 17.6738 27.4318 18.4553C27.4138 18.6195 27.4138 18.7787 27.4351 18.9314C28.4563 18.1434 29.9011 17.5835 31.5396 18.1023C34.4258 19.0102 35.2517 19.089 36.7555 17.9086L36.9082 18.2452C36.744 18.4964 36.4567 18.8576 36.0348 19.1777H37.4287V26.7332L41.7695 24.1293H53.9581C53.9581 24.1293 59.1068 26.8202 59.9523 27.2635C60.7009 27.6575 60.9948 28.1336 61.1097 28.8314C61.2099 29.4142 61.0556 30.153 60.7715 30.6259C60.5926 30.9214 59.1921 33.2149 58.455 34.4397C60.5253 36.6808 61.9224 39.8166 61.9224 43.3086C61.9224 46.474 60.7518 50.5555 56.9478 53.5895C58.6224 54.1378 59.6945 55.0507 60.5368 56.2508L59.3547 60.2699ZM32.1815 19.5849C30.4691 19.2089 29.5136 19.4207 28.5302 20.3581C29.0129 20.588 29.6154 20.7128 30.2803 20.6684C31.2441 20.5995 31.8384 20.0249 32.1815 19.5849ZM31.1948 30.4715L36.0184 27.5803C35.0694 27.1124 34.022 26.812 32.7808 26.7972C31.1176 26.7677 28.3118 27.5295 26.9574 27.7412C27.5632 28.1533 29.7139 29.5291 31.1948 30.4715ZM52.7235 30.7785L53.3917 29.8362L52.3574 28.4587L52.5298 28.1517L55.4374 29.7196L54.802 31.6438C55.2732 31.8703 55.705 32.1527 56.278 32.5336L58.1595 29.4438L53.2883 26.899H42.5297L33.7954 32.1527C35.4339 33.2921 36.9476 34.5234 38.0197 35.7646C40.3576 32.3579 44.4703 30.1891 48.5435 30.1891C49.875 30.1908 51.4249 30.3336 52.7235 30.7785ZM51.8484 42.9737C51.7893 41.3664 51.5907 39.9118 51.3198 38.6296L45.6179 38.3718C45.2288 40.1072 44.9694 41.7998 44.8512 43.3464L51.8484 42.9737ZM53.766 38.7428C53.9483 40.2155 53.9713 41.593 53.8744 42.8654L59.5238 42.5698C59.3821 41.3147 59.0249 40.0933 58.4681 38.9595L53.766 38.7428ZM50.8896 36.8942C50.2986 34.8534 49.5943 33.4366 49.2232 32.77C48.9849 32.7561 48.7462 32.7495 48.5074 32.7503C48.1085 32.7503 47.7095 32.8012 47.3237 32.8423C46.754 34.269 46.2894 35.7088 45.9118 37.17L50.8896 36.8942ZM52.4559 33.4694C52.8778 34.6039 53.1947 35.6973 53.4262 36.753L56.8772 36.5642C55.6805 35.1846 54.1618 34.1216 52.4559 33.4694ZM58.808 48.0403C59.2118 47.0568 59.4696 46.1128 59.5468 44.9176L53.6758 44.5843C53.4081 46.2294 52.9714 47.6594 52.5019 48.83L58.808 48.0403ZM44.3291 33.7009C42.3639 34.5809 41.0078 35.7778 39.7961 37.4951L43.8152 37.2849C43.9597 35.5003 44.1945 34.3133 44.3291 33.7009Z" fill="#FFD200" style="fill:#FFD200;fill:color(display-p3 1.0000 0.8235 0.0000);fill-opacity:1;"/>
<path d="M36.8737 68.9417C38.5122 68.6758 40.0751 67.4017 40.0751 65.4759C40.0751 63.7406 39.3363 61.8344 34.2271 61.8344H25.6012V61.974C25.8622 62.0544 26.2776 62.2662 26.5485 62.5289C27.133 63.1052 27.3283 63.9573 27.3513 65.0934V78.0027H34.498C38.4284 78.0027 41.2736 76.5071 41.2736 73.0675C41.2753 70.2749 39.0999 69.0878 36.8737 68.9417ZM33.1961 63.3728C35.025 63.3728 36.2646 63.7717 36.2646 65.7222C36.2646 67.804 34.6047 68.377 32.7085 68.377H31.0749V63.3728H33.1961ZM33.3816 76.4759H31.0749V69.8726H33.2765C36.3007 69.8726 37.4598 70.7772 37.4598 73.0413C37.4581 75.4892 35.9428 76.4759 33.3816 76.4759ZM19.2409 77.9994H23.8986L17.9521 70.3996C20.3343 69.761 22.119 68.4558 22.119 66.0867C22.119 63.3071 20.4525 61.8328 16.1018 61.8328H7.10156V61.9724C7.43484 62.0873 7.80425 62.3024 8.04887 62.5404C8.67767 63.1626 8.86648 64.1116 8.86648 65.3922V77.9994H12.6015V70.8363H13.9642L19.2409 77.9994ZM12.6032 63.3728H15.1167C17.2133 63.3728 18.3067 63.9868 18.3067 66.2098C18.3067 68.1964 16.8784 69.3752 14.5815 69.3752H12.6032V63.3728ZM56.3797 64.0509C57.3763 64.6123 57.6816 65.3561 57.6898 65.3626C57.7358 65.4168 57.8442 65.3988 57.8442 65.3988L58.6568 62.6324C58.6568 62.6324 57.1973 61.5833 53.7233 61.5833C48.4663 61.5833 44.5309 64.2315 44.5309 70.0269C44.5309 76.5563 49.2182 78.2523 53.3539 78.2523C57.1973 78.2523 58.711 77.0275 58.711 77.0275V75.1329C58.711 75.1329 57.35 76.4004 54.4358 76.4004C52.0339 76.4004 48.4975 75.3004 48.4269 69.935C48.3547 64.9752 50.5169 63.3613 53.4097 63.3613C55.0252 63.3613 55.8313 63.7406 56.3797 64.0509Z" fill="white" style="fill:white;fill-opacity:1;"/>
</g>
<defs>
<clipPath id="clip0_552_996">
<rect width="66" height="86" fill="white" style="fill:white;fill-opacity:1;"/>
</clipPath>
</defs>
</svg>
