<svg width="208" height="37" viewBox="0 0 208 37" fill="none" xmlns="http://www.w3.org/2000/svg">
<g clip-path="url(#clip0_552_985)">
<path d="M203.396 32.4241H202.973V29.713H201.999V29.3308H204.374V29.713H203.396V32.4241Z" fill="#EE2722" style="fill:#EE2722;fill:color(display-p3 0.9333 0.1529 0.1333);fill-opacity:1;"/>
<path d="M207.338 29.3303L206.443 31.7071H206.433L205.53 29.3303H204.864V32.4235H205.277V29.8409H205.287L206.286 32.4235H206.564L207.567 29.8409H207.577V32.4235H208V29.3303H207.338Z" fill="#EE2722" style="fill:#EE2722;fill:color(display-p3 0.9333 0.1529 0.1333);fill-opacity:1;"/>
<path d="M36.3242 18.4762C36.3242 26.8538 31.3782 31.9086 26.077 31.9086C22.3697 31.9086 19.995 30.5586 19.216 29.8496C25.4008 27.3406 32.4024 20.2175 32.4024 11.7848C32.4024 9.1086 31.5945 6.78878 30.8841 5.29729C34.1189 8.54108 36.3242 13.1808 36.3242 18.4762ZM5.20207 5.53976C6.66621 4.81786 8.94176 3.995 11.5689 3.995C19.8471 3.995 26.8397 11.1254 29.3028 17.4238C30.0006 16.6339 31.3241 14.2149 31.3241 10.4366C31.3241 5.03649 26.3618 0 18.1377 0C12.9393 0 8.38279 2.24453 5.20207 5.53976ZM5.43826 31.7029C4.72962 30.2115 3.92182 27.8898 3.92182 25.2172C3.92182 16.7827 10.9234 9.66149 17.1081 7.15247C16.3292 6.43978 13.9545 5.0934 10.2472 5.0934C4.946 5.0934 0 10.1464 0 18.5258C0 23.8194 2.20343 28.4628 5.43826 31.7029ZM31.1221 31.4603C29.658 32.184 27.3806 33.005 24.7552 33.005C16.477 33.005 9.48268 25.8728 7.0214 19.5744C6.32359 20.3661 5.00009 22.787 5.00009 26.5616C5.00009 31.9636 9.96232 37 18.1846 37C23.3849 37 27.9414 34.7536 31.1221 31.4603Z" fill="#EE2722" style="fill:#EE2722;fill:color(display-p3 0.9333 0.1529 0.1333);fill-opacity:1;"/>
<path d="M71.9795 18.5218C71.9795 10.0616 76.8047 4.22607 84.7385 4.22607C92.6741 4.22607 97.4993 10.1038 97.4993 18.5218C97.4993 27.0647 92.5515 32.7753 84.7385 32.7753C76.8462 32.7753 71.9795 27.0647 71.9795 18.5218ZM92.29 18.5218C92.29 12.3447 89.8233 8.49843 84.7385 8.49843C79.7744 8.49843 77.187 12.1776 77.187 18.5218C77.187 24.822 79.7744 28.5029 84.7385 28.5029C89.6646 28.5029 92.29 24.822 92.29 18.5218Z" fill="#EE2722" style="fill:#EE2722;fill:color(display-p3 0.9333 0.1529 0.1333);fill-opacity:1;"/>
<path d="M132.929 4.57568V32.4232H149.797V28.2831H137.905V20.2949H148.385V16.1548H137.905V8.71762H148.428L149.756 4.57568H132.929Z" fill="#EE2722" style="fill:#EE2722;fill:color(display-p3 0.9333 0.1529 0.1333);fill-opacity:1;"/>
<path d="M117.249 17.3961L115.96 21.4187H120.127V27.6564C119.068 28.1635 117.949 28.5032 116.158 28.5032C110.381 28.5032 107.512 24.5688 107.512 18.5606C107.512 12.6425 110.42 8.49868 116.331 8.49868C118.5 8.49868 120.698 9.20772 122.527 10.3778L123.892 6.10352C121.742 4.9629 118.888 4.22632 115.965 4.22632C107.615 4.22632 102.303 10.4439 102.303 18.9023C102.303 26.8978 107.004 32.7755 115.792 32.7755C119.533 32.7755 122.608 31.8002 125.049 30.5346V17.3961H125.047H117.249Z" fill="#EE2722" style="fill:#EE2722;fill:color(display-p3 0.9333 0.1529 0.1333);fill-opacity:1;"/>
<path d="M48.9756 4.57593H57.2123C64.7584 4.57593 67.1133 9.34604 67.1133 13.0656C67.1133 18.282 63.2366 20.2768 62.1168 20.7029V20.8794C62.6524 21.0372 63.7974 21.5865 65.2813 24.3013L69.8018 32.4236H64.2067L60.3029 25.3869C58.7305 22.5105 58.0922 21.5792 55.5787 21.5792H53.8332V32.4236H48.9756V4.57593ZM57.0843 17.4334C61.2657 17.4334 62.1295 14.7701 62.1295 13.0361C62.1295 11.5557 61.3793 8.72156 57.0843 8.72156H53.8332V17.4334H57.0843Z" fill="#EE2722" style="fill:#EE2722;fill:color(display-p3 0.9333 0.1529 0.1333);fill-opacity:1;"/>
<path d="M156.814 4.57593H165.049C172.594 4.57593 174.949 9.34604 174.949 13.0656C174.949 18.282 171.072 20.2768 169.954 20.7029V20.8794C170.489 21.0372 171.634 21.5865 173.118 24.3013L177.639 32.4236H172.044L168.138 25.3869C166.568 22.5105 165.929 21.5792 163.416 21.5792H161.67V32.4236H156.814V4.57593ZM164.921 17.4334C169.103 17.4334 169.965 14.7701 169.965 13.0361C169.965 11.5557 169.216 8.72156 164.921 8.72156H161.67V17.4334H164.921Z" fill="#EE2722" style="fill:#EE2722;fill:color(display-p3 0.9333 0.1529 0.1333);fill-opacity:1;"/>
<path d="M186.43 11.6314C186.43 9.42911 188.482 8.48681 190.772 8.48681C193.843 8.48681 196.216 9.5246 196.694 9.71011V5.05574C196.311 4.93651 194.204 4.21997 190.305 4.21997C184.332 4.21997 181.122 7.81089 181.122 11.9088C181.122 15.9974 184.378 18.1024 187.088 19.5737C187.707 19.91 188.459 20.3157 189.049 20.6372C191.295 21.855 192.945 22.812 192.945 24.9279C192.945 27.3359 190.662 28.4766 188.383 28.4766C184.487 28.4766 182.124 27.0273 181.722 26.8033L180.404 30.9195C180.79 31.1549 183.895 32.7692 188.475 32.7692C194.074 32.7692 198.257 29.428 198.257 24.4834C198.257 20.9751 195.913 18.7508 192.06 16.6624C191.385 16.2969 190.875 16.0195 190.239 15.6742C188.095 14.5115 186.43 13.5949 186.43 11.6314Z" fill="#EE2722" style="fill:#EE2722;fill:color(display-p3 0.9333 0.1529 0.1333);fill-opacity:1;"/>
</g>
<defs>
<clipPath id="clip0_552_985">
<rect width="208" height="37" fill="white" style="fill:white;fill-opacity:1;"/>
</clipPath>
</defs>
</svg>
