<svg width="218" height="40" viewBox="0 0 218 40" fill="none" xmlns="http://www.w3.org/2000/svg">
<g clip-path="url(#clip0_552_887)">
<path d="M85.6385 15.0042C80.9232 15.0042 77.0381 18.9402 77.0381 23.7174C77.0381 28.4945 80.9232 32.4306 85.6385 32.4306C90.3538 32.4306 94.239 28.4945 94.239 23.7174C94.239 18.9402 90.3538 15.0042 85.6385 15.0042ZM85.6385 27.5525C83.5133 27.5525 81.8198 25.8368 81.8198 23.6837C81.8198 21.5306 83.5133 19.8149 85.6385 19.8149C87.7638 19.8149 89.4573 21.5306 89.4573 23.6837C89.3909 25.8368 87.7638 27.5525 85.6385 27.5525Z" fill="#ED1C24" style="fill:#ED1C24;fill:color(display-p3 0.9294 0.1098 0.1412);fill-opacity:1;"/>
<path d="M105.131 15.4077H102.84V10.2942H97.7258V15.4077H95.335V20.1176H97.7258V31.9931H102.84V20.1176H105.131V15.4077Z" fill="#ED1C24" style="fill:#ED1C24;fill:color(display-p3 0.9294 0.1098 0.1412);fill-opacity:1;"/>
<path d="M112.635 15.408H107.521V31.9933H112.635V15.408Z" fill="#ED1C24" style="fill:#ED1C24;fill:color(display-p3 0.9294 0.1098 0.1412);fill-opacity:1;"/>
<path d="M110.112 7.40112C108.551 7.40112 107.256 8.71315 107.256 10.2943C107.256 11.8755 108.551 13.1875 110.112 13.1875C111.672 13.1875 112.967 11.8755 112.967 10.2943C112.967 8.71315 111.706 7.40112 110.112 7.40112Z" fill="#ED1C24" style="fill:#ED1C24;fill:color(display-p3 0.9294 0.1098 0.1412);fill-opacity:1;"/>
<path d="M183.764 19.8821C185.457 19.8821 186.818 21.2614 186.818 22.9771V31.9595H191.932V22.2034C191.932 17.7963 189.409 14.9368 185.457 14.9368C183.83 14.9368 182.103 15.6432 180.675 17.9645V15.3405H175.562V31.9258H180.675V23.0108C180.709 21.2614 182.07 19.8821 183.764 19.8821Z" fill="#ED1C24" style="fill:#ED1C24;fill:color(display-p3 0.9294 0.1098 0.1412);fill-opacity:1;"/>
<path d="M210.628 31.9933L204.352 23.6838L210.229 15.408H204.219L199.537 22.1027V7.80493H194.356V31.9933H199.537V25.1304L204.717 31.9933H210.628Z" fill="#ED1C24" style="fill:#ED1C24;fill:color(display-p3 0.9294 0.1098 0.1412);fill-opacity:1;"/>
<path d="M59.4059 27.5526C59.7379 26.6443 59.9372 25.7696 59.9372 24.5249C59.9372 22.8764 59.4059 21.3625 58.5093 20.3196C57.4135 19.0749 55.5207 18.0993 52.9306 17.3592C52.3993 17.2246 51.9012 17.0228 51.5027 16.8209C51.0379 16.6191 50.6726 16.3499 50.4069 15.9799C50.0749 15.6434 49.942 15.1388 49.942 14.6678C49.942 13.8941 50.3405 13.3558 51.0379 12.9521C51.868 12.4138 53.4951 12.4138 55.1222 12.9521C55.6536 13.154 56.2181 13.4231 56.7494 13.7259L58.941 9.3188C58.1108 8.84782 56.9486 8.20862 55.8196 7.87221C54.6574 7.60307 53.4951 7.46851 52.3329 7.46851C51.1043 7.46851 50.0085 7.67035 49.0455 8.00677C48.1489 8.34319 47.2855 8.9151 46.5218 9.65522C45.8245 10.3617 45.2267 11.3037 44.8947 12.1447C44.5626 13.053 44.3634 14.0623 44.3634 15.1725C44.3634 16.3499 44.8947 18.2675 46.2561 19.5795C47.7504 21.0261 49.4772 21.4971 50.1413 21.7999C50.8386 22.069 51.5692 22.2709 52.0341 22.5064C52.4989 22.7082 53.1299 22.9773 53.4619 23.2128C53.794 23.482 54.0596 23.6838 54.2257 24.0539C54.3585 24.3903 54.4249 24.6594 54.3585 25.0968C54.2921 25.635 54.0928 26.1397 53.5948 26.5434C53.1963 26.9471 52.3661 27.2498 51.2039 27.2498C50.2409 27.2498 49.3111 26.9807 48.3481 26.5434C47.518 26.2069 46.9203 25.8369 46.0237 25.2986L43.4336 29.8739C45.1935 31.455 48.1489 32.5652 50.739 32.5652C52.0341 32.5652 53.4619 32.3634 54.6242 31.9597C55.72 31.556 56.8158 30.9841 57.5463 30.3112C58.3101 29.4365 58.9742 28.4609 59.4059 27.5526Z" fill="#ED1C24" style="fill:#ED1C24;fill:color(display-p3 0.9294 0.1098 0.1412);fill-opacity:1;"/>
<path d="M73.4523 26.1059C72.755 27.0142 71.6924 27.5525 70.5302 27.5525C68.405 27.5525 66.7114 25.8367 66.7114 23.6837C66.7114 21.5306 68.405 19.8149 70.5302 19.8149C71.6924 19.8149 72.7882 20.3531 73.4523 21.2615L76.8726 17.7964C75.3119 16.0806 73.0539 14.9705 70.5302 14.9705C65.8149 14.9705 61.6641 18.3683 61.6641 23.6837C61.6641 28.9991 65.7484 32.3969 70.5302 32.3969C73.0539 32.3969 75.3119 31.2867 76.8726 29.571L73.4523 26.1059Z" fill="#ED1C24" style="fill:#ED1C24;fill:color(display-p3 0.9294 0.1098 0.1412);fill-opacity:1;"/>
<path d="M132.759 31.9932V15.4078H127.778V17.1236L127.313 16.7199C126.084 15.6097 124.656 15.0042 123.029 15.0042C118.613 15.0042 114.86 19.0075 114.86 23.7174C114.86 28.4272 118.613 32.4306 123.029 32.4306C124.656 32.4306 126.084 31.825 127.313 30.7148L127.778 30.3111V32.0269C127.778 31.9932 132.759 31.9932 132.759 31.9932ZM123.76 27.6198C121.634 27.6198 119.875 25.9041 119.875 23.6837C119.875 21.4634 121.568 19.7476 123.76 19.7476C125.951 19.7476 127.645 21.497 127.645 23.6837C127.645 25.9041 125.885 27.6198 123.76 27.6198Z" fill="#ED1C24" style="fill:#ED1C24;fill:color(display-p3 0.9294 0.1098 0.1412);fill-opacity:1;"/>
<path d="M173.071 31.9932V15.4078H168.09V17.1236L167.625 16.7199C166.397 15.6097 164.969 15.0042 163.342 15.0042C158.925 15.0042 155.173 19.0075 155.173 23.7174C155.173 28.4272 158.925 32.4306 163.342 32.4306C164.969 32.4306 166.397 31.825 167.625 30.7148L168.09 30.3111V32.0269C168.09 31.9932 173.071 31.9932 173.071 31.9932ZM164.139 27.6198C162.013 27.6198 160.253 25.9041 160.253 23.6837C160.253 21.4634 161.947 19.7476 164.139 19.7476C166.33 19.7476 168.024 21.4634 168.024 23.6837C168.024 25.9041 166.231 27.6198 164.139 27.6198Z" fill="#ED1C24" style="fill:#ED1C24;fill:color(display-p3 0.9294 0.1098 0.1412);fill-opacity:1;"/>
<path d="M140.396 31.9933V30.2775L140.861 30.6812C142.09 31.7914 143.517 32.397 145.145 32.397C149.561 32.397 153.313 28.3936 153.313 23.6838C153.313 18.9739 149.561 14.9706 145.145 14.9706C143.517 14.9706 142.09 15.5761 140.861 16.6863L140.396 17.09V7.77124H135.415V31.9596H140.396V31.9933ZM140.529 23.6838C140.529 21.5307 142.222 19.7477 144.414 19.7477C146.606 19.7477 148.299 21.4634 148.299 23.6838C148.299 25.9041 146.606 27.6199 144.414 27.6199C142.222 27.6199 140.529 25.9041 140.529 23.6838Z" fill="#ED1C24" style="fill:#ED1C24;fill:color(display-p3 0.9294 0.1098 0.1412);fill-opacity:1;"/>
<path d="M212.687 31.9932V29.3692H211.724V28.73H214.247V29.3355H213.284V31.9596H212.952H212.687V31.9932Z" fill="#ED1C24" style="fill:#ED1C24;fill:color(display-p3 0.9294 0.1098 0.1412);fill-opacity:1;"/>
<path d="M214.812 31.9932V28.73H215.343L216.439 30.5803L217.468 28.73H217.999V31.9932H217.402V30.1429L216.704 31.3877H216.173L215.409 30.0756V31.9259H214.812V31.9932Z" fill="#ED1C24" style="fill:#ED1C24;fill:color(display-p3 0.9294 0.1098 0.1412);fill-opacity:1;"/>
<path d="M29.0552 7.46846H17.8647C11.4558 7.46846 6.20921 12.3802 5.51188 18.6712C4.54889 16.8881 3.95117 14.8024 3.95117 12.582C3.95117 5.61817 9.52984 0 16.3704 0H35.6633L29.0552 7.46846Z" fill="#ED1C24" style="fill:#ED1C24;fill:color(display-p3 0.9294 0.1098 0.1412);fill-opacity:1;"/>
<path d="M6.67449 32.5316H17.865C24.2739 32.5316 29.5205 27.6199 30.2178 21.3289C31.1808 23.1119 31.7785 25.1977 31.7785 27.418C31.7785 34.3146 26.2663 40 19.3593 40H0L6.67449 32.5316Z" fill="#ED1C24" style="fill:#ED1C24;fill:color(display-p3 0.9294 0.1098 0.1412);fill-opacity:1;"/>
<path d="M17.8652 30.143C23.3671 30.143 27.8272 25.6245 27.8272 20.0505C27.8272 14.4766 23.3671 9.95801 17.8652 9.95801C12.3634 9.95801 7.90332 14.4766 7.90332 20.0505C7.90332 25.6245 12.3634 30.143 17.8652 30.143Z" fill="#ED1C24" style="fill:#ED1C24;fill:color(display-p3 0.9294 0.1098 0.1412);fill-opacity:1;"/>
</g>
<defs>
<clipPath id="clip0_552_887">
<rect width="218" height="40" fill="white" style="fill:white;fill-opacity:1;"/>
</clipPath>
</defs>
</svg>
