<svg width="188" height="45" viewBox="0 0 188 45" fill="none" xmlns="http://www.w3.org/2000/svg">
<path fillRule="evenodd" clipRule="evenodd" d="M72.6016 17.6382C72.0245 15.7896 71.33 11.9767 67.0558 11.9767C64.8616 11.9767 63.1288 13.364 63.1288 15.7897C63.1288 21.4495 75.72 21.218 75.72 29.1895C75.72 34.5021 70.6372 36.4664 66.0174 36.4664C62.5517 36.4664 60.3575 35.6579 59.086 34.9634C58.0459 32.6535 57.8145 30.9206 57.8145 27.9179L59.7788 27.5707C60.3575 29.8823 61.6274 35.0808 66.5928 35.0808C69.1342 35.0808 70.7513 33.348 70.7513 30.9223C70.7513 24.4539 58.6213 25.031 58.6213 17.2927C58.6213 12.5571 62.2028 10.5928 67.4013 10.5928C70.404 10.5928 72.0212 11.1698 73.5225 11.9784C73.8698 13.827 73.9838 15.7913 73.9838 17.6399L72.6016 17.6382ZM92.5856 34.5038C91.4314 35.3123 89.4671 36.4681 86.4644 36.4681C80.4573 36.4681 80.2258 33.1182 80.2258 28.958V23.5296C80.2258 22.144 80.2258 20.4111 79.07 20.4111C78.3772 20.4111 77.8001 20.6426 77.6844 20.7584V19.6043C80.573 18.68 82.8829 18.4485 84.8473 18.3327V28.7282C84.8473 31.7326 85.4243 34.274 89.353 34.274C90.8544 34.274 91.7787 33.5812 92.24 33.3497V23.5296C92.24 22.144 92.24 20.4111 91.0859 20.4111C90.5088 20.4111 90.0475 20.6426 89.816 20.7584V19.6043C92.8204 18.68 94.8988 18.4485 97.093 18.3327V29.5384C97.093 32.6569 97.093 34.0441 98.3645 34.0441C98.5943 34.0441 99.0573 34.1599 99.5186 34.0441V34.9684C97.67 35.6612 95.59 36.1226 93.6273 36.4715L92.5856 34.5038ZM104.484 23.5296C104.484 22.144 104.484 20.4111 103.214 20.4111C102.637 20.4111 102.058 20.6426 101.943 20.7584V19.6043C104.831 18.68 107.025 18.4485 108.99 18.3327V20.4111C110.03 19.6043 111.878 18.3327 115.342 18.3327C118.924 18.3327 121.234 19.9498 121.234 24.9169V32.427C121.234 34.2756 121.465 34.7369 122.851 34.8527L123.659 34.9668V35.8911H114.073V34.9651L114.881 34.851C116.267 34.7353 116.498 34.2723 116.498 32.4254V27.1111C116.498 24.1083 116.498 20.4111 112.455 20.4111C110.838 20.4111 109.8 21.2197 109.106 21.7984V32.4254C109.106 34.274 109.337 34.7353 110.723 34.851L111.647 34.9651V35.8894H102.058V34.9651L102.867 34.851C104.253 34.7353 104.484 34.2723 104.484 32.4254V23.5296Z" fill="#003955" style="fill:#003955;fill:color(display-p3 0.0000 0.2235 0.3333);fill-opacity:1;"/>
<path fillRule="evenodd" clipRule="evenodd" d="M124.812 34.9735L125.736 34.8577C127.698 34.5122 127.698 34.6262 127.698 30.352V16.6066C127.698 13.0251 127.698 12.5638 125.736 12.3323L124.812 12.1008V11.1765H135.554V12.1008L134.63 12.3323C132.781 12.5638 132.781 13.0251 132.781 16.6066V34.0492C133.935 34.2807 134.283 34.5105 135.438 34.5105C140.983 34.5105 141.098 31.9691 142.138 28.8506L143.641 29.0821C143.294 31.5078 143.18 33.5879 142.256 35.8961H124.812V34.9735ZM145.488 34.9735H146.297C147.682 34.742 147.914 34.3947 147.914 32.4321V23.5363C147.914 22.2648 147.914 20.5336 146.76 20.5336C146.181 20.5336 145.72 20.7651 145.488 20.7651V19.725C148.493 18.6867 150.571 18.4552 152.651 18.3394V32.4321C152.651 34.3947 152.883 34.742 154.268 34.9735H155.077V35.8978H145.488V34.9735ZM147.337 12.5638C147.337 11.1782 148.491 10.0224 150.108 10.0224C151.61 10.0224 152.765 11.1765 152.765 12.5638C152.765 14.1809 151.61 15.221 150.108 15.221C148.493 15.221 147.337 14.0652 147.337 12.5638ZM160.16 20.5353V18.8024C160.16 13.7196 162.933 8.40698 169.054 8.40698C171.132 8.40698 172.519 8.98403 173.328 9.67684C173.097 10.7169 172.751 11.5254 171.711 12.4497H171.479C170.671 11.7569 168.822 10.2539 167.437 10.2539C165.011 10.2539 164.78 13.2566 164.78 16.7223V18.8007C166.049 18.9165 168.477 19.0322 169.747 19.2621V20.1863C168.014 20.3021 166.512 20.4178 164.78 20.5336V32.4321C164.78 34.3947 165.011 34.742 166.512 34.9735H168.129V35.8978H157.617V34.9735H158.541C159.928 34.742 160.158 34.3947 160.158 32.4321L160.16 20.5353ZM175.869 26.3092C175.869 25.6164 175.869 19.725 179.219 19.725C181.762 19.725 183.031 21.9209 183.146 24.6921C180.836 25.5023 178.411 25.8479 175.869 26.3092ZM187.421 33.2406C186.959 33.5879 185.225 34.2807 183.146 34.2807C177.718 34.2807 176.562 30.2379 176.101 28.042C180.185 27.2269 184.172 25.9884 187.999 24.3465C187.536 22.2664 186.498 18.3394 180.259 18.3394C175.64 18.3394 171.134 21.6894 171.134 27.6965C171.134 33.7019 175.755 36.5906 180.259 36.5906C184.418 36.5906 186.844 34.9735 187.884 34.1649L187.421 33.2406Z" fill="#003955" style="fill:#003955;fill:color(display-p3 0.0000 0.2235 0.3333);fill-opacity:1;"/>
<path fillRule="evenodd" clipRule="evenodd" d="M28.9609 7.49035C28.9609 5.63522 29.2363 3.7791 29.9229 2.06169L29.7163 1.92398C28.2733 3.09253 26.968 4.53552 26.0749 6.18507C27.1058 6.59721 28.0677 7.00935 28.9609 7.49035ZM19.0656 5.15422C18.1029 3.56695 17.4282 1.82205 17.0727 0H16.8662C16.1796 1.71841 15.8353 3.64239 15.972 5.56636C16.9807 5.29432 18.0208 5.15576 19.0656 5.15422ZM24.1509 5.70308C23.6011 3.91681 23.3945 1.99284 23.6011 0.136715L23.3945 0.067859C22.2948 1.64856 21.5394 3.36696 21.0584 5.15323C22.1581 5.22208 23.1889 5.42865 24.1509 5.70308ZM33.1531 10.514C33.564 8.70647 34.3352 7.00032 35.4204 5.49751L35.2837 5.29094C33.4964 6.04736 31.9846 7.21492 30.7481 8.52019C31.5724 9.13989 32.3967 9.82746 33.1531 10.514ZM36.3145 14.4997C37.2076 12.8511 38.4451 11.476 39.887 10.2386L39.8192 10.1009C37.8932 10.3763 36.1079 10.995 34.5272 11.956C35.1449 12.7124 35.8325 13.6066 36.3145 14.4997ZM38.2385 18.6919C38.3063 18.8296 38.3752 19.0352 38.3752 19.2418C39.6815 17.8677 41.1933 16.8358 42.9107 16.0804L42.8429 15.8738C41.0556 15.6673 39.1316 15.805 37.2765 16.286C37.6886 17.0424 37.9641 17.8667 38.2385 18.6919ZM38.5129 29.4115C40.2303 28.9305 42.1533 28.725 44.0094 28.9994L44.0793 28.7928C42.5862 27.6461 40.8815 26.8054 39.0628 26.319C38.9174 27.3562 38.734 28.3878 38.5129 29.4115ZM38.8562 21.1658C38.9949 22.2655 39.1306 23.2963 39.1306 24.3262C40.7113 23.3642 42.4986 22.7465 44.3537 22.471V22.2645C42.6353 21.509 40.7113 21.1658 38.8562 21.1658ZM37.8253 31.3355C37.5509 32.2975 37.0011 33.2595 36.5191 34.1526C38.3742 34.1526 40.2303 34.5648 41.9487 35.2523L42.0854 35.0467C40.9867 33.5349 39.4739 32.2286 37.8253 31.3355ZM13.9802 6.04736V5.97851C12.6061 4.81095 11.5064 3.29811 10.6821 1.5807L10.5444 1.64955C10.3378 3.50467 10.5444 5.42865 11.0942 7.21592C11.9874 6.73492 12.9493 6.39064 13.9802 6.04736ZM29.3042 41.3685C30.8849 42.2627 32.3278 43.4991 33.4275 45.0099L33.6341 44.8732C33.4153 43.0252 32.8061 41.2448 31.8468 39.6501C31.0904 40.2688 30.1973 40.8187 29.3042 41.3685ZM33.4275 38.2071C35.145 38.758 36.8644 39.5823 38.3752 40.681L38.5139 40.5433C37.8263 38.8249 36.7945 37.1763 35.4204 35.87C34.8017 36.6953 34.183 37.5196 33.4275 38.2071ZM6.55869 31.0611C7.58954 31.1299 8.68825 31.0611 9.7191 30.8545L9.30596 30.2358C7.86297 27.4187 6.76427 24.4629 6.21442 21.8523C5.52686 21.8523 4.77043 21.8523 4.01501 21.7845C1.95332 21.509 0.579194 20.4093 0.579194 20.4093C-0.0514193 22.9258 -0.168511 25.5435 0.234913 28.1063C0.23591 28.1063 1.74875 31.1289 6.55869 31.0611Z" fill="#DFB22F" style="fill:#DFB22F;fill:color(display-p3 0.8745 0.6980 0.1843);fill-opacity:1;"/>
<path fillRule="evenodd" clipRule="evenodd" d="M13.774 38.8948C14.3927 38.8259 15.0793 38.7571 15.698 38.6194C13.5975 36.6695 11.792 34.4243 10.3382 31.9543C9.2385 32.092 8.20766 32.2297 7.24567 32.2297C1.47273 32.092 0.510742 30.0303 0.510742 30.0303C0.579598 30.168 0.78517 30.649 0.78517 30.8556C1.20759 32.0471 1.68918 33.2167 2.22815 34.3602C2.64129 35.0468 3.05343 35.7344 3.60228 36.4209C3.60328 36.4209 6.5581 39.7191 13.774 38.8948ZM6.97024 20.616C8.96517 20.3544 10.9103 19.7985 12.7422 18.9664C13.0166 18.8287 13.2232 18.7599 13.4986 18.6231C11.9179 15.0496 10.6116 11.5449 9.7185 8.38354C9.64965 8.4524 9.58079 8.4524 9.51193 8.52126C8.96208 8.86554 8.41223 9.27768 7.86238 9.62096C6.21482 11.9571 5.9394 16.0116 6.97024 20.616Z" fill="#DFB22F" style="fill:#DFB22F;fill:color(display-p3 0.8745 0.6980 0.1843);fill-opacity:1;"/>
<path fillRule="evenodd" clipRule="evenodd" d="M5.93983 20.6847C5.25326 16.4924 5.59654 12.7133 7.17724 10.1707C4.22242 12.6445 2.16073 15.8049 1.12988 19.3096C1.40431 19.585 2.98501 20.7525 5.93983 20.6847ZM16.7293 39.5822C13.3623 40.3386 9.58222 40.5442 6.35297 39.0323C11.2328 43.6357 18.2411 45.2164 24.7006 43.1557C22.2268 43.0859 19.4087 41.7117 16.7293 39.5822Z" fill="#DFB22F" style="fill:#DFB22F;fill:color(display-p3 0.8745 0.6980 0.1843);fill-opacity:1;"/>
<path fillRule="evenodd" clipRule="evenodd" d="M32.0534 30.3735C30.4737 32.5041 27.8611 34.7025 24.8384 36.4888C24.564 36.6275 24.2197 36.834 23.8076 37.0396C23.6202 37.0965 23.4365 37.1652 23.2578 37.2452C21.8836 37.9327 19.9596 38.6882 17.8291 39.3069C20.5095 41.5741 23.1899 42.8794 25.525 42.9483C26.1437 42.6738 26.8313 42.3296 27.5179 42.0541C27.5179 41.9863 25.3184 39.1672 24.563 38.1373C24.6319 38.0685 24.7696 38.0685 24.8374 37.9996C25.4562 37.6553 26.006 37.313 26.4171 37.1055C28.7879 35.5247 30.801 33.4646 32.3268 31.0581C32.9455 30.0273 33.4265 28.9974 33.6331 28.0344L33.4954 27.9656C33.2209 28.725 32.6711 29.5493 32.0534 30.3735Z" fill="#DFB22F" style="fill:#DFB22F;fill:color(display-p3 0.8745 0.6980 0.1843);fill-opacity:1;"/>
<path fillRule="evenodd" clipRule="evenodd" d="M31.7785 16.4924C31.0919 18.2787 30.0611 20.2037 28.4115 21.9211C26.3508 24.3949 23.5327 26.6622 20.1657 28.5173C19.9592 28.655 19.8913 28.7239 19.6847 28.7239C19.4103 28.9294 19.066 29.0671 18.8605 29.2039C18.6155 29.3337 18.3629 29.4487 18.104 29.5481C16.8676 30.098 15.6991 30.5101 14.5994 30.9223C14.5994 30.9223 13.9128 31.1967 13.1564 31.2656V31.3344C12.6065 31.4721 12.1255 31.6088 11.5068 31.7466C13.1564 34.3581 14.9427 36.5565 16.7978 38.3428C19.2028 37.7929 21.1966 37.0375 22.5019 36.3509C22.7763 36.2821 22.9828 36.2132 23.1894 36.1444C21.952 34.3581 20.7835 32.3653 19.547 30.3714H19.6159C19.8903 30.3036 20.0969 30.1659 20.4402 30.0281C21.0589 29.616 21.6087 29.3416 22.0897 28.9983C24.838 27.2799 27.1062 25.0116 28.8236 22.7444C30.3355 20.6138 31.3663 18.4833 31.7785 16.697V16.4924Z" fill="#DFB22F" style="fill:#DFB22F;fill:color(display-p3 0.8745 0.6980 0.1843);fill-opacity:1;"/>
<path fillRule="evenodd" clipRule="evenodd" d="M13.98 19.7217C13.7745 19.8594 13.5 19.9283 13.2246 20.066C11.6439 20.6847 9.58321 21.4401 7.24609 21.7146C7.8648 24.2572 8.9635 27.0055 10.4065 29.6859C10.5442 30.0292 10.6819 30.3725 10.8875 30.6479C13.499 30.1669 15.7663 29.2738 17.4158 28.5862C17.7591 28.4485 18.0345 28.3118 18.2401 28.1741L17.0037 25.9068C17.0726 25.9757 15.6296 23.0887 14.8732 21.6457C14.7864 21.4036 14.6708 21.1727 14.5289 20.9581C14.6666 20.8903 14.7354 20.8903 14.8732 20.8214C14.8732 20.7526 15.0109 20.6837 15.1476 20.6149H15.2164L16.1096 20.1339C19.5454 18.2099 21.9514 15.5983 23.3245 13.1255C23.8679 12.1437 24.3058 11.1071 24.6308 10.033L24.493 9.89526C24.1498 10.7894 23.6688 11.6825 22.9812 12.6445C21.4015 14.8429 18.789 17.179 15.4919 18.9663L15.3541 19.0352C15.3541 19.0352 14.8732 19.3096 13.98 19.7217Z" fill="#DFB22F" style="fill:#DFB22F;fill:color(display-p3 0.8745 0.6980 0.1843);fill-opacity:1;"/>
</svg>
