<svg width="224" height="39" viewBox="0 0 224 39" fill="none" xmlns="http://www.w3.org/2000/svg">
<g clip-path="url(#clip0_552_1038)">
<path d="M122.416 10.7642V6.61108H107.388V28.2357H122.416V23.7962H113.457V19.0703H120.971V14.9172H113.457V10.7642H122.416Z" fill="#4B286D" style="fill:#4B286D;fill:color(display-p3 0.2941 0.1569 0.4275);fill-opacity:1;"/>
<path d="M149.148 23.9394H139.611V6.61108H133.542V28.2357H149.148V23.9394Z" fill="#4B286D" style="fill:#4B286D;fill:color(display-p3 0.2941 0.1569 0.4275);fill-opacity:1;"/>
<path d="M198.857 14.9172C194.666 13.9147 193.221 13.9147 193.221 12.1962C193.221 10.6209 195.244 10.1913 196.545 10.1913C198.423 10.1913 200.735 10.6209 203.047 11.7666L204.781 7.75674C202.469 6.46786 199.435 5.89502 196.4 5.89502C190.62 5.89502 186.719 8.18637 186.574 12.7691C186.43 16.9221 189.753 18.3542 192.932 19.0703C195.967 19.6431 199.001 20.2159 199.001 21.9345C199.001 23.5098 197.556 24.2258 194.811 24.2258C192.21 24.2258 189.898 23.3665 187.441 22.3641L185.996 26.6604C188.742 27.806 191.632 28.5221 194.666 28.5221C198.712 28.5221 201.747 27.9492 203.914 25.8011C205.504 24.369 205.937 22.6505 205.937 21.0752C205.793 17.7814 203.625 15.9197 198.857 14.9172Z" fill="#4B286D" style="fill:#4B286D;fill:color(display-p3 0.2941 0.1569 0.4275);fill-opacity:1;"/>
<path d="M98.5732 10.9074V6.61108H79.6436V10.9074H86.0016V28.2357H92.2151V10.9074H98.5732Z" fill="#4B286D" style="fill:#4B286D;fill:color(display-p3 0.2941 0.1569 0.4275);fill-opacity:1;"/>
<path d="M170.245 6.61108V20.3592C170.245 21.3616 170.245 21.7913 170.245 22.2209C170.101 23.5098 168.8 24.2258 166.777 24.369C165.332 24.369 164.176 23.9394 163.598 23.0801C163.309 22.6505 163.165 21.9345 163.165 20.7888V6.61108H156.807V21.5048C156.807 23.5098 157.096 24.5122 157.963 25.6579C159.552 27.5196 162.587 28.5221 166.633 28.5221H166.777C166.777 28.5221 166.777 28.5221 166.922 28.5221C172.413 28.5221 175.303 26.374 176.17 24.369C176.603 23.3666 176.603 22.9369 176.603 20.932V6.61108H170.245Z" fill="#4B286D" style="fill:#4B286D;fill:color(display-p3 0.2941 0.1569 0.4275);fill-opacity:1;"/>
<path d="M82.5334 0.739502L46.5527 7.89997V10.3345H46.6972C70.3954 4.60615 82.5334 1.16913 82.6779 1.16913C82.8224 1.16913 82.8224 1.02592 82.8224 0.882711C82.8224 0.739502 82.6779 0.739502 82.5334 0.739502Z" fill="#4B286D" style="fill:#4B286D;fill:color(display-p3 0.2941 0.1569 0.4275);fill-opacity:1;"/>
<path d="M52.3327 2.74441C52.9107 2.31479 53.0552 2.6012 52.9107 3.03083C52.6217 3.60367 51.4657 7.47032 42.3622 14.9172C40.0502 16.7789 38.3161 17.9246 34.8481 19.9295C40.4837 12.053 48.5757 5.03576 52.3327 2.74441ZM53.3442 0.0234375C51.6102 0.166647 48.2867 2.74441 46.5527 4.17651C39.4721 10.1913 34.2701 15.7765 30.3686 21.648C22.4211 25.9443 12.1615 30.2406 2.19095 33.6776L1.90195 33.8208L0.0234375 38.9764L1.17944 38.5467C7.53748 36.1122 18.375 31.5295 28.0566 26.5171C27.4786 27.9492 27.1896 29.2381 27.1896 30.527C27.1896 31.3863 27.3341 32.2455 27.6231 33.1048C28.2011 34.6801 29.5016 35.8258 31.0911 36.3986C33.5476 37.4011 37.0156 37.4011 40.7727 36.2554C50.5987 33.248 62.4478 24.2258 64.9043 22.3641H65.0488C65.1933 22.2209 65.1933 22.2209 65.0488 22.0777C65.0488 21.9345 64.9043 21.9345 64.7598 22.0777L64.6153 22.2209C61.8698 23.7962 48.5757 31.6727 39.9057 33.964C35.5706 35.1097 32.1026 34.5369 30.8021 32.6751C30.3686 32.1023 30.2241 31.2431 30.2241 30.3838C30.2241 28.6653 31.0911 26.5172 32.6806 24.0826C34.1256 23.2233 35.4261 22.5073 36.7266 21.648C45.1077 16.9221 54.9337 7.75674 55.3672 2.17158V2.02837C55.3672 1.59874 55.2227 1.0259 54.7892 0.739484C54.3557 0.166647 53.9222 0.0234375 53.3442 0.0234375Z" fill="#66CC00" style="fill:#66CC00;fill:color(display-p3 0.4000 0.8000 0.0000);fill-opacity:1;"/>
<path d="M46.4077 7.90005L8.69302 15.9198L7.10352 19.7864L46.5522 10.3346H46.6967V7.75684L46.4077 7.90005Z" fill="#4B286D" style="fill:#4B286D;fill:color(display-p3 0.2941 0.1569 0.4275);fill-opacity:1;"/>
<path d="M207.093 6.61108H207.815L208.971 9.76169L210.127 6.61108H210.85V10.3345H210.416V7.18392L209.26 10.3345H208.827L207.526 7.18392V10.3345H207.093V6.61108Z" fill="#4B286D" style="fill:#4B286D;fill:color(display-p3 0.2941 0.1569 0.4275);fill-opacity:1;"/>
<path d="M211.572 6.61108H212.873C214.029 6.61108 214.751 7.18392 214.751 8.4728C214.751 9.76169 214.173 10.4777 212.873 10.4777H211.572V6.61108ZM212.006 9.9049H212.873C213.162 9.9049 214.173 9.76169 214.173 8.4728C214.173 7.61355 213.884 7.04071 212.873 7.04071H212.006V9.9049Z" fill="#4B286D" style="fill:#4B286D;fill:color(display-p3 0.2941 0.1569 0.4275);fill-opacity:1;"/>
</g>
<defs>
<clipPath id="clip0_552_1038">
<rect width="224" height="39" fill="white" style="fill:white;fill-opacity:1;"/>
</clipPath>
</defs>
</svg>
